<?xml version="1.0" standalone="no"?>
<!DOCTYPE svg PUBLIC "-//W3C//DTD SVG 1.1//EN" "http://www.w3.org/Graphics/SVG/1.1/DTD/svg11.dtd">
<svg xmlns="http://www.w3.org/2000/svg">
<metadata>Generated by Fontastic.me</metadata>
<defs>
<font id="jlfoundation" horiz-adv-x="512">
<font-face font-family="jlfoundation" units-per-em="512" ascent="480" descent="-32"/>
<missing-glyph horiz-adv-x="512" />

<glyph glyph-name="instagram" unicode="&#98;" d="M446 512l-380 0c-36 0-66-30-66-66l0-126 109 0c25 56 82 96 147 96 65 0 122-40 147-96l109 0 0 126c0 36-30 66-66 66z m2-128l-64 0 0 64 64 0z m0-128l-32 0c0-88-72-160-160-160-88 0-160 72-160 160l-96 0 0-190c0-36 30-66 66-66l380 0c36 0 66 30 66 66l0 190z m-96 0c0-53-43-96-96-96-53 0-96 43-96 96 0 53 43 96 96 96 53 0 96-43 96-96z"/>
<glyph glyph-name="kids-arrow" unicode="&#99;" d="M276 470c6 6 14 8 23 2 1-1 2-2 3-3 0 0 0 0 0 0 83-58 145-135 204-216 2-3 3-6 3-9 4-5 4-12-1-19-62-81-138-146-232-187-10-4-20 0-26 7-4 5-7 11-6 18l12 82c-54-2-105-4-181-6-2-1-3-1-5-1-15-1-30-2-45-3-12-4-27 2-25 18 7 64 10 128 8 192 0 2 0 4 0 6 0 11 6 22 20 22 71-3 166-5 237-8 2 30 4 60 4 90 0 7 3 12 7 15z m28-125c-1-11-9-18-18-19-2-1-5-1-7-1-69 2-162 5-231 7 1-43 0-85-4-128 2 1 4 2 7 2 110 5 133 3 243 3 11 0 17-9 17-17 1-2 1-4 1-6-2-21-3-43-4-64 57 33 107 75 151 125 0 1 0 1 1 1-45 62-93 121-152 168-1-24-3-47-4-71z"/>
<glyph glyph-name="kids-book" unicode="&#100;" d="M511 401c0 3-1 4-2 6 0 1-1 2-3 3-72 54-176 83-248 16-73 67-177 38-249-16-2-1-3-2-3-3-1-2-2-3-2-6 2-90-1-180-1-270 0-1 0-2 1-4-2-6 3-14 11-11 77 30 163 37 233-11 2-4 5-7 10-6 4-1 7 2 9 6 70 48 156 41 233 11 8-3 13 5 11 11 1 2 1 3 1 4 0 90-3 180-1 270z m-253-280c-70 48-158 45-236 18 0 86 3 172 1 259 66 47 162 76 227 9 2-2 5-3 8-3 2 0 5 1 7 3 65 67 161 38 227-9-2-87 1-173 1-259-78 27-166 30-235-18z m246-19c-79 32-190 44-249-25-58 69-169 57-249 25-14-6-2-25 12-19 72 29 179 42 227-31 2-4 6-5 10-5 4 0 8 1 11 5 47 73 154 60 226 31 14-6 26 13 12 19z m-450 215c2-4 7-7 12-4 12 9 26 15 41 18 4 1 6 4 5 8 1 1 1 2 1 2l0 47c0 6-5 8-9 8-1 0-2 1-2 1-17-1-34-5-47-15-3-2-4-5-4-8 0-1 0-1-1-2-1-16-1-32-1-47 0-4 2-7 5-8z m13 53c9 6 19 9 29 10l0-35c-11-3-21-7-30-12 0 12 0 25 1 37z m78 8c21 7 40 5 59-7 9-5 17 9 8 15-22 13-47 16-71 8-10-4-6-20 4-16z m-1-36c20 4 40 1 57-11 9-5 17 9 8 15-21 14-45 17-70 12-10-3-6-19 5-16z m74-49c-56 31-121 19-172-15-9-6 0-20 9-14 46 31 104 43 154 15 10-5 18 9 9 14z m0-39c-56 32-121 20-172-15-9-6 0-20 9-14 46 31 104 43 154 15 10-5 18 9 9 14z m0-38c-56 31-121 19-172-15-9-6 0-21 9-15 46 31 104 44 154 15 10-5 18 10 9 15z m72 56c48 33 107 25 156-2 9-5 16 10 7 15-54 30-120 37-172 1-9-6 1-20 9-14z m4-38c47 32 107 24 155-3 9-5 17 10 7 15-53 30-119 37-172 1-9-6 1-19 10-13z m-4 116c48 32 107 24 156-3 9-5 16 10 7 15-54 30-120 37-172 1-9-6 1-19 9-13z m-6-25c-9-6 1-20 10-14 47 33 107 25 155-2 9-5 17 10 7 15-53 30-119 36-172 1z m175-117c-53 30-119 36-172 1-9-6 1-20 10-14 48 33 107 25 155-2 10-5 17 10 7 15z"/>
<glyph glyph-name="kids-button" unicode="&#101;" d="M6 337c0 0 103 3 168 0 66-3 298-4 329 0 0 0 13-40 8-79-6-39-8-83-8-83 0 0-140 11-183 9-44-2-54-2-78-2-25 0-38 3-51 0-13-3-15-3-35-7-20-3-43 0-64 0-21 0-56-2-70-1-14 1-22-1-22 5 0 5 6 70 6 88 0 18 3 21 0 33-3 12 0 37 0 37z"/>
<glyph glyph-name="kids-dottedline" unicode="&#102;" d="M158 263c-1 1-7 2-7 2-2-2 5-3 7-3 2 0 0 1 0 1z m-15 4c0 0-4 2-5 1-2-2 6-3 7-3 3 0-1 2-2 2z m26-7c-1 1-5 2-5 1-2-1 5-3 6-3 4 0-1 3-1 2z m-26 7c0 0 0 0 0 0 0 0 0 0 0 0 0 0 0 0 0 0z m51-13c-1 0-4 1-5 1-2-1 7-3 7-3 4 0-3 2-2 2z m13-3c-1 0-4 1-5 1-2-1 6-3 7-3 4 0-3 2-2 2z m-26 6c0 0 0 0 0 0 0 0 0 0 0 0z m39-9c-1 0-4 1-5 1-2-1 6-3 7-3 4 0-3 2-2 2z m-39 9c-1 1-4 2-5 1-2-1 7-3 7-3 3 0-1 2-2 2z m-38 10c0 0 0 0 0 0z m-44 10c-2-2 6-3 7-3 2 0 0 1 0 2 0 0-6 1-7 1z m26-6c-2-2 6-3 7-3 3 0-6 5-7 3z m-71 3c-1 1-4 0-5-1 1 1-5-2-2-2 1 0 9 2 7 3z m-25-9c-1 0-9-5-6-5 1 0 9 5 6 5z m-12-6c-1 0-8-5-5-5 0 0 8 4 5 5z m-11-7c-1 0-8-6-5-6 1 0 8 5 5 6z m35 18c-1 1-3-1-4-1 1 0-6-3-2-3 0 0 9 3 6 4z m26 7c-1 0-4-1-5-1 1 0-6-2-2-2 1 0 9 1 7 3z m50-4c0 0-4 2-5 1-1-2 6-3 7-3 4 0-3 3-2 2z m111-27c-2-1 6-2 7-2 1 0 0 1 0 1 0 1-6 2-7 1z m-148 32c0 0-7 0-7 0 0-1-1-2 0-2 1 0 9 0 7 2z m6 0c-2-2 6-2 7-2 2 0 0 1 0 2 0 0-7 0-7 0z m268-42c-1 0-7 0-7 0 0 0-2-2 0-2 1 0 9 0 7 2z m105 10c0 0-6-1-7-1 0 0-1-2 0-2 1 0 10 1 7 3z m-13-2c0 0-7 0-7-1 0 0-1-1 0-1 1 0 10 0 7 2z m26 4c0 0-6-1-7-1 0-1-1-2 1-2 1 0 9 1 6 3z m-65-8c-1 0-7 0-7-1-1 0-2-1 0-1 1 0 9 0 7 2z m13 1c-1 0-7 0-7 0 0-1-2-2 0-2 1 0 9 0 7 2z m13 2c0 0-7-1-7-1 0 0-1-2 0-2 1 0 10 0 7 3z m73 11c0 0 0 0 0 0z m5 1c0 1-4-1-5-1 0 0-4-2-1-2 1 0 8 1 6 3z m-5-1c0 0 0 0 0 0 0 0 0 0 0 0 0 0 0 0 0 0z m-21-4c0 0-6-1-6-1-1-1-2-2 0-2 1 0 9 1 6 3z m13 2c0 0-6-1-6-1-1-1-2-2 0-2 1 0 9 1 6 3z m-217-14c-3-2 5-2 6-2 2 0 1 2 0 2 0 0-6 1-6 0z m13-1c-3-2 6-2 7-2 1 0 0 2 0 2-1 0-7 1-7 0z m-53 7c-2-2 6-3 7-3 2 0 0 2 0 2 0 0-6 1-7 1z m66-8c-3-2 6-1 7-1 1 0 0 1 0 1 0 1-7 1-7 0z m-53 6c-2-2 6-3 7-3 2 0 0 2 0 2 0 0-6 1-7 1z m13-2c-2-2 6-2 7-2 2 0 1 1 0 1 0 1-6 1-7 1z m71-4c-1 0-4 0-5 0-1-2 1-2 2-2 1 0 6-1 6 1 0 1-2 1-3 1z m29 1c0 0-7 0-7-1 0 0-1-1 0-1 1 0 10-1 7 2z m6 0c0 0-1-2 0-2 2 0 9 0 7 3 0 0-6-1-7-1z m-53-1c-3-2 6-2 7-2 2 0 0 2 0 2 0 0-6 0-7 0z m73 3c0 0-6 0-6-1-1 0-2-1 0-1 1 0 9 0 6 2z"/>
<glyph glyph-name="icon-boy" unicode="&#97;" d="M472 388c0 1-1 2-1 4 0 0-1 1-1 2-27 103-128 118-187 118-46 0-86-9-112-16-63-18-108-47-134-85-25-37-19-84 15-129 1-58 17-109 46-151 28-39 67-69 111-86 3-11 4-22 3-34-2-15 21-15 22 0 1 9 1 18 0 27 8-2 16-4 25-5 10-2 20-2 30-2 27 0 53 5 77 15 2-12 6-23 13-33 8-12 27-1 19 11-7 10-9 21-10 32 14 8 27 18 39 29 65 62 67 161 62 214-3 27-8 56-17 89z m-406-16c-4-1-6-5-7-9-2-9-3-19-4-28-9 25-4 48 12 69 30 38 81 56 117 66 32 9 68 14 100 14 49 0 136-12 159-98 0-1 1-2 1-3 0-1 0-2 1-2 2-11 5-22 7-32-16 3-29 11-40 24-4 4-7 5-10 5-3 0-6-1-8-3-2 0-4 1-6 0-58-8-115-16-173-16-50 0-94 6-135 18-5 2-11 0-14-5z m365-237c-29-47-83-76-144-76l-3 0c-57 1-113 29-153 76-32 38-50 89-51 148 1 2 1 4 0 6 0 19 2 38 5 57 39-10 82-15 130-15 60 0 120 8 180 17 1 0 1 0 1 0 17-17 38-26 61-29 12-75 3-135-26-184z m-240 93c0 10-7 14-14 14-4 0-7-1-10-3-3-3-4-6-4-11 0-6 0-15 2-24 2-6 8-11 14-11 1 0 3 1 4 1 7 2 12 10 10 17-2 6-2 11-2 17z m169 12c-1 6-7 10-14 10-1 0-2 0-4 0-7-2-11-10-9-18 2-10 4-19 7-27 3-6 8-10 14-10 1 0 2 0 4 1 3 1 7 4 9 7 1 4 2 7 0 10-3 8-5 17-7 27z m-172 54c-14 1-28 0-41-5-8-3-10-10-9-17 1-6 6-11 12-11 2 0 4 0 5 1 10 4 20 5 32 3 1 0 1 0 1 0 4 0 7 2 10 5 2 3 4 6 4 9 0 8-6 14-14 15z m179 3c-15 0-30 0-46-1-9-1-14-10-13-17 0-7 5-12 12-12 1 0 1 0 2 0 15 2 30 2 45 2 9 0 14 7 14 14 0 7-5 14-14 14z m-44-144c-27-11-52-12-79-2-8 3-16-2-18-11-1-6 2-14 10-16 15-6 30-8 45-8 0 0 0 0 0 0 17 0 34 3 50 9 8 4 11 11 9 18-1 8-9 13-17 10z m-65 27c14-4 29-5 43 0 13 5 8 26-5 21-11-4-21-3-33 0-13 4-19-17-5-21z"/>
<glyph glyph-name="kids-pattern01" unicode="&#103;" d="M38 473c-1-7-1-15-4-22-12-27-14-56-9-85 3-15 15-21 29-25 2 4 5 8 7 12 8 18 18 34 36 45 13 8 29 1 28-15-1-24-7-46-29-60-12-8-13-12-9-25 9-27 28-45 50-61 11-8 17-3 19 10 2 15 5 30 11 44 9 23 45 40 65 34 20-7 28-32 18-52-13-25-35-38-57-53-3-2-5-7-5-11 3-27 17-50 28-74 7-15 19-29 32-38 14-9 31-17 49-15 12 1 14 4 10 15-8 25-9 50 1 74 3 8 10 15 16 21 18 16 36 29 63 21 23-7 39-32 34-55-4-23-15-42-32-57-6-6-15-11-23-17-3-2-6-5-10-8 22-22 53-22 76-3 24 20 36 46 44 74 6 24 9 49 13 73 1 4 2 9 5 11 3 2 8 4 13 3 2 0 5-6 4-8-2-20-4-40-9-58-11-44-30-83-67-111-21-16-46-23-72-19-9 2-19 11-27 18-7 7-14 9-24 8-27-4-53-5-77 12-24 16-41 37-52 63-8 21-14 42-22 62-1 5-9 9-13 9-35 0-56 19-71 48-9 16-19 31-21 49-1 3-8 7-12 8-22 8-38 20-42 45-3 23 1 44 6 65 3 11 7 22 12 32 3 7 9 12 13 18 2-1 4-2 5-2z m317-281c-11 2-20 0-24-13-9-27-6-54 4-79 3-7 11-9 19-5 7 5 14 9 22 13 13 7 21 15 23 30 2 25-9 58-44 54z m-175 69c0-4-1-7 0-11 1-11 4-14 14-10 9 3 18 8 25 14 12 9 13 27 5 40-10 14-21 15-33 4-10-10-11-23-11-37z m-82 122c-13-12-17-24-19-38 0-2 3-6 5-8 2-1 6 1 8 3 7 4 14 28 11 35-1 3-3 5-5 8z"/>
<glyph glyph-name="arrow-imgnext" unicode="&#104;" d="M127 0c-2 0-3 1-5 2-2 2-2 6 1 8l254 246-254 246c-3 2-3 6-1 8 3 3 6 3 9 0l258-250c2-1 2-2 2-4 0-2 0-3-2-4l-258-250c-2-1-3-2-4-2z"/>
<glyph glyph-name="arrow-imgprev" unicode="&#105;" d="M385 0c2 0 3 1 5 2 2 2 2 6-1 8l-254 246 254 246c3 2 3 6 1 8-3 3-6 3-9 0l-258-250c-2-1-2-2-2-4 0-2 0-3 2-4l258-250c2-1 3-2 4-2z"/>
<glyph glyph-name="arrowdown" unicode="&#106;" d="M454 249c-10 8-24 7-33-2l-141-161 0 402c0 13-11 24-24 24-13 0-24-11-24-24l0-402-141 161c-9 9-23 10-33 2-10-9-11-24-2-33l182-208c0 0 1 0 1-1 1 0 1-1 2-1 0-1 1-1 1-2 1 0 2-1 3-1 1 0 1-1 2-1 1 0 2-1 3-1 0 0 1 0 1 0 2-1 3-1 5-1 2 0 3 0 5 1 0 0 1 0 1 0 1 0 2 1 3 1 1 0 1 1 2 1 1 0 2 1 3 1 0 1 1 1 1 2 1 0 1 1 2 1 0 1 0 1 1 1l182 208c9 9 8 24-2 33z"/>
<glyph glyph-name="arrowleft" unicode="&#107;" d="M374 18l2 0 0 128-99 91 99 106 0 151 0 0-240-257z"/>
<glyph glyph-name="arrowlong" unicode="&#108;" d="M511 253c1 2 1 4 0 6 0 1-1 2-2 3l-102 102c-3 4-9 4-12 0-3-3-3-8 0-12l88-87-474 0c-5 0-9-4-9-9 0-5 4-9 9-9l474 0-88-87c-3-4-3-9 0-12 2-2 4-3 6-3 2 0 4 1 6 3l102 102c1 1 2 2 2 3z"/>
<glyph glyph-name="arrowright" unicode="&#109;" d="M138 494l-2 0 0-128 99-91-99-106 0-151 0 0 240 257z"/>
<glyph glyph-name="arrowsketched" unicode="&#110;" d="M58 0c-12 13-16 28-19 44-2 15-5 30-7 45-2 19-2 38 0 57 4 50 23 94 56 131 57 66 125 113 209 138 28 9 56 16 85 21 8 1 16 3 23 5 5 1 9 3 13 5-3 6-7 11-13 14-12 6-24 14-36 20-10 6-19 13-25 22-1 1-2 2-3 4 0 0 0 0 0 0 4 7 4 7 11 4 34-17 68-34 102-50 5-3 9-5 14-7 3-2 6-3 8-5 6-5 7-10 3-16-2-3-5-7-8-10-20-22-40-44-61-65-8-8-17-15-25-22-1 1-2 1-2 1-5 5-5 2-2 9 3 10 10 18 16 27 8 11 16 22 23 33 3 4 5 9 7 14-5 3-10 4-15 3-25-5-49-10-73-15-50-10-96-30-139-58-29-19-57-39-81-65-28-29-49-62-60-102-5-20-8-40-8-61-1-29 3-57 8-86 2-10 3-20 4-30 0-2-1-3-2-4-1 0-3 0-3-1z"/>
<glyph glyph-name="arrowtop" unicode="&#111;" d="M235 386l-235-257 0-3 79 0 156 171 183-171 94 0 0 1z"/>
<glyph glyph-name="arrowup" unicode="&#112;" d="M58 263c10-8 24-7 33 2l141 161 0-402c0-13 11-24 24-24 13 0 24 11 24 24l0 402 141-161c9-9 23-10 33-2 10 9 11 24 2 33l-182 208c0 0-1 0-1 1-1 0-1 1-2 1 0 1-1 1-1 2-1 0-2 1-3 1-1 0-1 1-2 1-1 0-2 1-3 1 0 0-1 0-1 0-2 1-3 1-5 1-2 0-3 0-5-1 0 0-1 0-1 0-1 0-2-1-3-1-1 0-1-1-2-1-1 0-2-1-3-1 0-1-1-1-1-2-1 0-1-1-2-1 0-1 0-1-1-1l-182-208c-9-9-8-24 2-33z"/>
<glyph glyph-name="brain" unicode="&#113;" d="M480 291c4-2 6-5 6-9 0-6-5-11-11-11 0 0-1 0-1 0l-2 1 0 0c-1 0-1 0-2 1l-15-23-1 1 15 22c-2 2-3 3-4 5l0 1c-1 1-1 2-1 3 0 1 0 1 1 2l-8 2 1 1 0 1 7-2c1 2 2 3 4 4l-1 1 1 1-5 10 2 1 5-11c1 0 3 1 4 1 1 0 3-1 4-1l17 34 1 0z m-9 64l1 1 0 1-2 2 1 1-8 22c0 0 0 0 0 0l0-13-2 0 0 13c-1 0-2 1-4 2l-2-3-1 1-1-1-1 1 4 3c0 1 0 1 0 1l-7-2-1 1 7 2c0 1 0 1 0 2 0 1 0 2 0 3l1 1c1 2 3 3 6 3 4 0 7-3 7-7 0-2-1-4-2-5l29-40c1 1 3 2 5 2 6 0 11-5 11-11 0-5-5-10-11-10-1 0-2 0-4 1l-1 0c-1 1-2 2-3 3l-1 1c0 1 0 1-1 2l-23-6 0-1-1 1-1 1 1 1 5 14c0 1-1 1-1 1l-1 1c-1 2-2 3-2 5 0 1 0 2 1 2l0 2c0 0 0 0 1 0l-4 4 1 1 4-4c0 0 0 1 1 1z m3 1c0 0 0 0 0 0l-1 0z m18-15l-10 7c0-1 0-1 0-2z m0-1l-11 5c-1-2-4-3-6-3 0 0-1 0-1 0l-5-14 22 6c0 0 0 1 0 1 0 2 0 3 1 5z m1 2c1 1 1 1 2 1l-30 40c0 0 0 0 0 0l8-25 3-2c2-1 5-2 5-4z m-38 18c0 0 0 0 0 0l0 0z m13-1l4-3-1-1-4 3-1-1 0 0c-1-1-2-1-2-2l5-2 0-2-8 4c0 0-1 0-1 0l-1 1c-1 0-1 1-2 1l-4 2-2 0 0 1-2 1 1 1 3-1 2 0c0 1 0 1 0 1 0 1 0 1 0 2l1 1c0 1 0 1 0 2l-1 1 1 1 1-1 0 0-1 1 2 1 0-1 1 0c1 0 1 0 2 0l2 0c3 0 6-3 6-7 0 0 0 0 0-1l2-1-1-1-2 1c0-1 0-1 0-1z m-13 15l3-4-2-1-1-1-2 2c-1-1-2-1-4-1l0-1-1 0 0 1c-2 0-4 1-5 2l0 1c-1 1-1 1-1 1l-1 1 1 1c0 0 0 0 0 0l0 1c0 2 1 4 3 5l0 1 1 0c1 0 1 0 2 0l-1 1 0 0-1 2 2 0 0 0 0 0 1-1 0-1c1-1 2-1 2-1l1 0 1-1c0 0 0 0 0 0l1 1 1-1-1-1c1-1 2-3 2-4 0-1-1-2-1-2z m-18-5l1 0 0 1-1-1z m11-6l0 3-8 3-1-1z m-12 7l-5 2 4-2z m0-2l-1 0-1 1-4 2c-1-3-4-5-8-5-1 0-2 0-3 1l-1-2-1 1-7-10-1 0 7 12c0 1-1 1-1 2l-1 1c-1 1-1 2-1 4l0 1c0 4 2 7 5 8l1 1c1 0 2 0 3 0 1 0 3 0 4-1l1 0c2-1 3-3 4-5l13 5 0-2-13-4c1-1 1-1 1-2l10 0 0-1-10 0c0-1 0-1-1-2l6-2 4 3 1-1-3-2 1-1 3 2 0-1-2-1 7-2 1 0 0-1 7-2-1-1-6 2 0-3 1-1-1-1 0-1 2 0 0-1-2-1 0-29-1 0 0 29-32-8 0 1 32 8 0 3-11 5-6-4-1 1 6 4z m22-143c1 0 2 1 4 1 0 0 1 0 1-1l9 47 2-1-9-46c4-1 7-5 7-10 0-6-4-11-10-11-4 0-7 2-9 5l-35-17-1 1 35 18c-1 1-1 2-1 4 0 0 0 1 0 1l0 1c1 1 1 1 1 1l-6 3 0 1-33 17 1 1 39-20c1 2 2 3 4 4l-4 8 1 0z m-28 139l1-2-16-10c0 0 0 0 1-1l0-1c0 0 0-1 0-1 0-1 0-2-1-3l28-19 0-2-29 19c-1-1-3-2-5-2-2 0-3 0-4 1l-1 1c0 1-1 1-1 1l-1 1 0 1c0 0 0 1 0 1l0 2c0 1 1 2 2 3l-5 5 1 1 5-5c1 1 2 2 3 2l1 0 1 0c1 0 1 0 1-1l6 11 1-1-5-10c0-1 1-1 1-1l20 15 1-1z m-24-185l-7-13-2 0 6 12-1 1 1 2c0 0 0 0 0 0l-1 1c-1 1-2 3-2 5l0 2c0 0 0 1 0 2l0 1c0 0 1 1 1 1l1 1c0 1 1 1 1 2l1 0c2 1 3 2 5 2 3 0 7-2 8-5l1-1c0-1 1-3 1-4 0-5-5-9-10-9-1 0-2 0-3 0z m50 133c0 1 0 1 0 1l-3 3z m8-10c0 0-1 0-1 0l6-10-1-1-7 11c-1 0-2 0-2 1l-2 0c0 1-1 1-1 2l-3-1 0 1-1 1 3 1c0 1 0 1 0 2 0 0 0 1 0 2l-3 5c-1-1-2-1-3-1-1 0-2 0-3 1l-1 0c0 0 0 0-1 1l-1 1c-1 1-1 2-1 4 0 0 0 1 0 1l-40 10c0-1-1-2-2-3l20-30-1-1-20 30c-1 0-2-1-3-1-1 0-2 1-3 1l-19-28-1 0 18 29c-1 1-2 3-2 5 0 2 1 4 2 5l1 1c0 0 0 1 1 1l-2 6 1 0 2-6c1 0 1 0 2 0 1 0 2 0 3 0l3 4 1-1-3-4 4 3 1-1-4-3c1-1 2-3 2-5 0 0 0 0 0-1l39-10c0 1 0 1 1 1l0 2c1 1 3 2 5 2l1 0c1 0 1 0 1 0l9 27 1-1-9-27c1 0 2 0 2-1l17 17 1-1-17-17c1 0 1-1 1-2l11 3 1-1-11-3c0 0 0-1 0-1 0-2-1-3-2-4l4-4c1 1 2 2 4 2 0 0 1 0 1-1l4 11 1-1-3-10c1 0 1-1 2-2l25 17 1-1-25-17c1-1 1-2 1-3 0-3-1-5-3-6z m-81-40c1 0 3-1 4-1l4 3 1-1-4-3c1-2 2-3 2-5 0-1-1-2-1-2l0-2c-1 0-1 0-1 0l-1-1c-1-1-2-2-4-2l0-13-1 0 0 13c0 0-1 0-1 0l-1 1c-3 1-4 3-4 6 0 0 0 1 0 1l0 1c0 1 1 2 1 3l1 1c1 0 1 0 2 0l-4 13 1 0 4-12c1 0 1 0 2 0z m7 88l0 0-1 3 0-1c0-1 0-2 1-2z m-7 6c2 0 4-1 5-3l1 1 0 0 1 1 7 5 1 1 1-1 15 11 1-1-15-11-1-1-1 1-7-6 1-3 10 0 0-2-10 0-1 0 0 0-1 0c-1-1-1-3-2-4l4-3-1-1-4 3c-1-1-3-1-4-1-1 0-1 0-1 0l-2 0c-2 1-4 4-4 7 0 0 0 1 0 1l-28 10 0 1 28-9c0 0 0 0 1 0l0 1c1 2 3 3 5 3z m6-124l2 4-3-3c0 0 0-1 1-1z m17 14l-1 1-2-1 2-1c0 0 1 1 1 1z m6 0l9 9-2 1-12-8 0-1c1 0 2 0 2 0 1 0 2-1 3-1z m-35 30l13-5c0 1 0 1 1 2l-17 17c-1-1-1-1-2-1z m24-36l2 0 1 0c0 0 0 1 0 1l-3 0c0 0 0 0 0-1z m3 3l-2 2-2-1c1-1 1-1 1-2l3 0c0 1 0 1 0 1z m35 34l-3 12 0-11c1 0 2 0 3-1z m2 1l7 10-10 3c0 0-1 0-1 0z m7 11l1 1-9 3c0 0-1-1-1-1z m-50-27c0 0-1 0-1 0l0-13 4-3 4 3z m2-17l-3 2 0 0c1 0 2-1 3-2z m0 18l6-14 11 8-15 8c-1-1-2-2-2-2z m45-11c0 0 0 0 0 0l-2 10c-1-1-2-1-3-2z m-54 0l4-2 0 12c0 0 0 0-1 0z m1 22c1 1 2 1 4 1 2 0 3 0 4-1l18 18c0 1-1 2-1 3l-41 0c0-2 0-3-1-4z m7-38l-9-5-1-1c0 0 0 0 1-1z m-5 1l-3-4 10 6-1 0c-1-1-2-2-4-2-1 0-2 0-2 0z m-1 9c1 0 1 1 2 1l0 1-4 2-1-1z m46 0l-17 8-9-9c1-1 1-2 1-3l24 0c0 2 0 3 1 4z m-16 9l16-8c1 2 3 3 4 4l-4 9c-1-1-2-1-4-1-2 0-4 1-6 2z m-22 18l24 16-1 1c-1 0-1 0-2 0-1 0-2 1-3 1z m26-9c-1 1-1 2-1 4l-23 0c0-1 0-1-1-2l16-8z m-1 5c0 3 2 6 5 8l-6 11-23-16c0-1 1-2 1-3z m-40-34c0-1 1-1 1-1l5 5c-1 0-1 2-1 3 0 1 0 2 1 3l-2 2z m44 58l-3 0c0-1-1-1-2-2l1-1z m-2-31c0 0 0 0 0 1l-8-6 2-1z m2 34c0 0 1 1 1 1l-4-1c0 0 0 0 0 0z m-2-1l3-1c-1 0-1 0-1 1z m7-5c-1 0-3 1-3 2l-6-4 6-11c1 1 2 1 3 1z m-2 10c0 0 1 0 2 0l3 1 7 15 1 0-7-14 13 4 1-1-14-5-1-1c1 0 1 0 2-1l13 7 0-1-13-7c0-1 1-1 1-2 0 0 0 0-1-1l10-3 7 12 2 0-8-12 7-3 0-1-8 3 0-1 8-2-1-1-8 2-8-12c2-1 3-2 3-4l21 7 0-1-20-7c0-1 0-2 0-3 0-1 0-3-1-4l3-12c0 0 1 0 2 0 2 0 3 0 5-1l1-1c3-2 4-5 4-8 0-4-2-8-5-10l0 0-1 0c-2-1-3-1-4-1-6 0-11 4-11 10l-24 0c0 0 0-1 0-1l0 0-1-1c-1-1-2-2-3-2l36-15 0-1-42 17-14-10 61-11 0-1-62 10c0-1-1-2-2-3l17-27-1 0-17 26c-1 0-2-1-3-1l0-15 19-12-1-1-18 12-1 0 0 1-1 0 1 1 0 12-1 1 1 1c-1 0-1 1-1 1l-1-1-5-9-1 1 4 7-1 1 2 1 0 0c0 1 0 1-1 1l-1 1c-1 1-1 3-1 4 0 3 1 5 3 6l-1 3 1 1 1-3c1 0 1 0 2 0l1 0c1 0 1 0 1 0l4 13-1 2 1 1 1-1 0 1 0 0 0 2 1-1 3 10c-1 0-1 1-1 1l-2 1c-1 1-1 3-1 4 0 1 0 2 0 2l-12 4-1 0-1 1-12 4 0 1 12-4-4 12c-1 0-1 0-2 0-1 0-3 1-4 2l0 0-1 1-4-3-1 1 4 3c0 1-1 2-1 3 0 2 1 3 2 5l1 1c1 1 3 1 4 1 1 0 1 0 1 0l10 40 2 0-10-40c0 0 0 0 1-1l1 0c1-2 2-3 2-5l41 0c0 1 1 2 2 3l1 1c1 0 1 0 2 0 1 0 2 0 3-1l18 19 1-1-18-19c0 0 1 0 1 0z m-46-136c0 0 1-1 1-2l2 0 0-1-2 0c-1-3-2-4-5-5l0 0-1 0 0-1-2 0 0-1-1 1-2-2-1 1-2-3-1 1 6 6c-1 1-1 2-1 3 0 2 1 4 2 5l0 0 2 0c0 0 0 0 0 0l1 0c1 0 2 0 3-1l3 4 1-1z m-80 181l-21-7-1 1 21 7c0 1 0 2 0 3 0 1 0 2 0 3l1 1c1 2 2 3 3 4l2 1c1 1 3 1 5 1 2 0 5-1 7-2l9 9 1-1-9-9c0-1 0-1 1-2l12 7 1-2-13-6c1-1 1-3 1-4 0-3-1-5-2-7l40-41-1-1-40 41c-2-2-5-3-7-3-3 0-5 1-7 3l-18-19-1 1 18 19c0 0 0 0-1 0l0 2c-1 0-1 0-1 1z m31 33c0 0 1 0 1 1l-18 18 12-18z m10-13l7 2-8 5c-1-1-2-1-3-1l0-4c2 0 3-1 4-2z m-12 44l-12 12-4-10 14-5c1 1 1 2 2 3z m-2-7l-10 0c-1-2-1-3-2-4l18-18c1 0 2 1 2 1l0 12c-4 0-8 4-8 9z m-10 1l10 0c0 1 0 1 0 2l-14 5 0-1c2-1 3-3 4-6z m34-37l19-13 0-1-21 14-8-3c0 0 0 0 0-1 0 0 0 0 0-1l0-1 0 0c-1-2-3-3-5-3-2 0-3 1-4 2l-1 2c0 0 0 1 0 1 0 1 0 1 0 2l1 1c0 1 0 1 1 1l-2 3 1 1 2-3c0 0 1 0 1 0l0 4c0 0-1 0-2 0l-1 1c-1 1-1 2-1 4 0 0 0 0 0 0l-4 1-1-1-1 2-1 0 0 1-11 17c-1 0-2-1-3-1-3 0-5 2-6 4l-11-6-1 1 11 6c0 1 0 1 0 2 0 1 0 1 0 2l0 1c1 1 1 1 1 2l1 1c1 1 3 1 4 1l1 0c1 0 1 0 1 0l0 1-1 0 1 2 1-1 3 11 0 1 1 1 2 4 1 0-2-5 13-13c1 0 2 1 2 1l2 1c1 0 1 0 2 0 2 0 5-1 6-2l15 15 1-1-14-15 17 13 1-1-18-13c1-2 2-4 2-6 0-1-1-3-2-4l24-16-1-2-23 16c-2-2-4-3-7-3l0-12c2-1 4-2 4-5l25 0 0-1-25 0c0-1 0-1 0-2l8-6 1 1z m20-304l0 1-1 1z m-41 29l-16 23c-1 0-1 0-2 0l10-40c0 0 1 1 1 1 0 0 1-1 1-1z m42 52l-4-17 5 17c0 1 0 1 0 1z m-11 0c0 0 0 0 0 0l-1-2z m1-3l0 1-2-2c1 0 1 1 2 1z m2-23l-1 6 0-6c0 0 1 0 1 0z m1 91l-1 2c0 0-1 0-1 0l0-3c0 0 1 0 1-1z m1-163l-3 1 8-11z m2 38l-2 16c0 0-1 0-1 0z m1 117l-3 6 0-1c1-1 2-2 2-3 0-1 0-1 0-1z m-3 10l1 1-1 0c0 0 0 0-1 0z m-1-89l5 20-3-3c0-1 1-2 1-3 0-3-2-5-4-5z m-4-73l-31 15 42-32c0 0 0 0 0 0z m-31 45l1 1-10 12z m29-43l-22 31-9-9c1-1 2-3 2-4 0-1 0-2-1-3z m-22 33l2 2-3 3-1-1z m3 15l0 1c-1 0-1 0-1 0l-4-8 1 0z m4-8l-3 7-4-8 3-3z m1 23l2 5-4-4c0 0 1 0 1-1z m11-47l-11 23-4-4z m-24 22l-1 2-4-13z m1-1l0 0-1-3z m1 4l-2 2-1-2 2-2z m2-9l-2 3-7-12c0 0 0 0 0 0z m-1 8l-1-2 0 0 1 1z m-1 2l3 6c0 0-1 0-1 0-1 0-1 0-2 1l-2-4z m30 47l4 8 0 0c-1-2-3-4-5-4l0-3c0 0 1 0 1-1z m5 51c0 0 0 0 0 0l-4 7 2-7z m-10-129l-19 23-2-2 23-33 4-2z m-4 74l2 3-3-5 0 0z m2 0l-1-1 0 0 1 0c0 0 0 0 0 1 0 0 0 0 0 0z m1-2l-3-1-3-7 6 6c0 1 0 1 0 2z m-31-22l-11 6c0-1 0-1-1-2l16-19 1 3c-3 1-5 5-5 9 0 1 0 2 0 3z m-11 14l42 21c0 1-1 1-1 2 0 2 2 4 3 5l-4 14-40-41c0 0 0 0 0-1z m14-10l-13 4c0-1 0-1 0-1l11-5c1 1 1 2 2 2z m15-24l0 0 0 0z m2 102l-1 2-4-1z m-1-84l2 2-3 0 0 0c0-1 1-2 1-2z m9 59l-8 24-8 1-49-17c0 0 0-1 0-1 0-3-1-5-3-6l20-40c1 0 2 0 3 0 2 0 3 0 5-2z m-2-61l-6 0-5-8 4-7 9 10c-1 1-2 3-2 5z m13 82l-17 2 7-22 12 13z m-18 4l17-3-2 6c0 0 0 0-1 0-2 0-3 2-4 3l-10-3z m5-84l-4 1-1-1 5 0c0 0 0 0 0 0z m-12 7l9 15-32-9c0 0 0 0 0-1 0 0 0-1 0-1l14-4c1 1 3 1 4 1 2 0 3 0 5-1z m9-4l3-1c2 3 5 6 9 6l0 12c-1 1-1 1-2 1z m9 18l-9-9-4-8 2-1z m-10-8l3 6-9-13z m3 9l-1-2 2 2z m-1 2l8 11c0 0 0 1-1 1l-41-21c0 0 0 0 0 0z m20-83l-8 48c0 0 0 0-1 0-2 0-4 1-6 3l-9-10z m-3-6l3-5 3-7c0 0 0 0 0 0l0 4c-2 1-2 2-3 3 0 0 0 1 0 2 0 0 0 1 0 2z m4 0l-9 12 4-10 4-2c1 0 1 0 1 0z m-3 105l1 2-2-1-1-1c0 0 0 0 1 0z m0 34l1 1c-1 1-1 2-1 4 0 0 0 0 0 0l-2 1z m2-36l-1 0-5-8c0 0 1 0 1 0l5 5 0 2c0 0 0 1 0 1z m-1 45c0 0 0 0 0 1l-3 3z m2 2l-2 4-3 1c0 0 0 0 0-1l4-4c1 0 1 0 1 0z m-9-41l8 22-2 5-12-12 5-15c0 0 0 0 0 0 1 0 1 0 1 0z m7 28l1-4 2 5c-1 0-1 0-2 1z m0-32l1 0c0 1 1 2 2 3l0 0-1 0z m0-101l-24 42 0 0 14-29z m15 110c0 0 0 0 0 0l-2-1-3-3z m-10-5l0 1-1-1 0 0c1 0 1 0 1 0z m0 42l0 2-3 1 1-3c1 0 1 0 2 0z m8-24l-5 11c0-1-1-1-1-1z m-5-18l2 3-4-2 0-1c1 0 1 0 2 0z m-2 3l6 3 1 2 0 1 1 0c0 1 1 2 2 3l-3 3-1 1 1 0-7 10 0-13-1 0 0 15c0 0-1 0-1 0l-2-6 3-9-2 0-2 6-6-19c0-1 0-1 1-1l1-1c0 0 0 0 0 0l0 0 2 3 1-1 0 0 1 0 1 2 1-1 0 0 0 1 2 0 0 0 0 1z m10 1l-6-6c0-1 1-2 1-3 0-3-3-5-5-5-1 0-1 0-1 0l-9-26c4-2 6-5 6-9 0-3-2-6-4-8l8-54c0 0 0 0 0 0 3 0 5-2 5-5 0-3-2-5-5-5 0 0-1 0-1 0l1-3c3 0 5-3 5-6 0-2-2-5-5-5-3 0-5 3-5 5 0 1 0 2 0 3l-43 33c-1-1-3-2-5-2-4 0-7 3-7 7 0 3 2 5 5 6l-10 39c0 0-1 0-1 0-5 0-8 4-8 8 0 3 1 6 4 7l-20 40c-1 0-2 0-3 0-4 0-7 3-7 7 0 3 2 5 4 6l0 0 2 1c0 0 0 0 1 0l1 0c0 0 0 0 0 0l4 14 1 0-3-15c1 0 3-2 4-3l46 15-46 7 1 1 48-7 7 3-4 11 1 1 4-12 10 4c0 0 0 0 0 1 0 0 0 0 0 1l1 1 0 0c1 1 2 2 4 3l0 3c-3 0-5 2-5 5 0 3 3 5 5 5 1 0 1 0 1 0l2 0 0 0c0-1 0-1 1-1l4 5 1-1-3-3 2 1 1-1-4-3c0-1 1-1 1-2 0-1-1-2-1-2l0 0 1-1 0 0 0 0 6 8 1-1-5-8 5-4-1-1-5 4-2-3 4-8 4-1 0 7 1 0 0-7 17-6 0-2-17 6 0-1c4 0 6-3 7-6l10 0 0-2-10 0c-1-2-2-4-4-5l6-11 10 11 1-1-11-11 2-3 8 12 1-1-7-12c0 0 0 0 0 0 0 0 1 0 1 0l0 0 2 0c1-1 2-3 2-5 0-2-2-5-5-5-1 0-2 1-3 1z m-107 50c1 1 2 1 4 1l1 0c1 0 1 0 2 0l7 15 1-1-7-15c1 0 2-2 3-3l1 0 0-3-1-1 0 0-1-4-1 0c-1-1-2-1-4-1l0-13-1 0 0 13c-4 0-6 3-7 6l0 0 0 1 0 0c1 1 1 2 1 3l-4 3 1 1 2-1 1 1z m-2 10c0 0 0-1 0-2 0-2-1-3-2-4l2-2-1-1-2 2c0-1 0-1 0-1l-1-1 0 1-1-1 0 0c-1 0-1 0-2 0-3 0-5 2-6 5l-1 1c0 0 0 1 0 1 0 0 0 1 0 1l-13 10 1 1 13-10c0 1 0 1 0 1l-13 9 1 1 13-9c0 1 0 1 1 1l1 1c1 1 2 1 3 1 2 0 3-1 4-2l5 5 1-1-5-5c1 0 1 0 1 0l6 3 1-2z m-39 242c1 2 3 4 6 4 4 0 7-3 7-7 0-1 0-2-1-3l14-6 0 0 1-1-1-1 0 0-1 0-1 1-12 6c-1 0-1 0-1 0l0-1-1-1 4-6-1 0-4 6c-1-1-2-1-3-1-2 0-3 1-5 2l-31-32-1 1 31 32c0 1-1 2-1 3l0 2c0 0 0 0 0 0l-16 6 0 1 1 2z m50-231c0-3-2-4-4-5l0 0 8 4c0 0 0 0-1 1z m1 63l3-4-1 2z m7-58l0 7-9-9c1 0 1-1 1-2l3 0c1 2 3 4 5 4z m17 41l-10 7c0-1 0-1 0-2z m28-63l-15 47c-1 0-2 0-3 0-2 0-4 0-5 1l-18-27c1-1 2-2 2-4 0 0 0-1-1-1z m-28 62l-11 5c-1-2-3-3-5-3l0-32 18 18c-2 2-3 5-3 7 0 2 1 3 1 5z m18 2l9 6-35 0 10-6c2 2 5 4 8 4 3 0 6-2 8-4z m11 6l-9-7 10 5c0 1-1 1-1 2z m-25-21c-1 0-1 0-1 0l-19-19 0-8c1 0 1 0 2 0z m35 15c-1 0-2 0-3 0-2 0-4 1-6 3l-10-5c0-2 0-3 0-5 0 0 0-1 0-1l26-7z m-110-13c1 0 1 0 1 0l1 0c1 0 1 0 1 0l7 19 1 0-6-20c2-1 4-3 4-6 0-1-1-2-1-3l30-20c0 1 2 1 3 1 1 0 2 0 3-1l10 10 0 33c-3 0-6 3-6 6l0 2c0 0 0 0 0 0l0 2c0 0 1 1 1 1l-3 4c-2-1-3-2-5-2-3 0-5 2-6 4l0 2c-1 0-1 0-1 1l0 1c0 0 0 1 1 1l0 1c1 1 1 2 3 3l1 1c0 0 1 0 1 0l-1 2 2 0 0 14 1 0 0-16 0 0c4 0 6-3 6-7 0 0 0-1 0-2l2-3 1-1 2 1 0-1c1 0 1 0 2 0 3 0 6-3 6-6l39 0c1 3 4 6 7 6 1 0 2 0 2 0l1 0 1-1c0 0 0-1 1-1l3 4 1-1-3-4c1-1 1-2 1-4 0-1 0-1 0-2l0-1c-1-1-1-1-1-2l16-16-1-1-16 16c-1 0-1 0-1 0l8-16 8-3 0-1-7 2 8-17 3 8 1-1-3-9 1-1-1-1-6-17-2 0 7 19-10 19-27 7c-1-3-3-5-6-6l16-49 15-6-1-1-14 6-1-1 0 1-41 17c-1-2-3-3-4-3-1 0-1 0-1 0l-5-19-1 0 4 18-1 1 1 1c-1 0-1 1-2 1l-8-4 0-13-1 0 0 12-1 2 1 0 0 1c-1 0-2 1-3 1l-1 1c0 1-1 2-1 3 0 1 0 2 1 3l-30 20c0-1-1-1-1-1l19-29-1-1-19 29c-1-1-2-1-3-1-1 0-2 0-3 1l-1 0c0 0 0 1-1 1l-1 1c-1 1-1 2-1 4 0 3 1 5 4 6l0 0z m22 164l-5 12c-1 0-2-1-2-1 0 0 0 0 0 0z m10-7c0 0 1-1 1-1l9 3-10 5c0 0-1-1-2-1z m-3 15c1 0 2 0 2-1l3 3-2 1-2 1c0 0-1 0-1 0z m0-13c0 0 1 0 1 0l-1 3c0 0 0 0 0 0z m21-12l1 1c-2 1-3 3-3 5l-14 0 0 0z m1-2l-4-8 5 8z m-3 9c0 1 0 2 0 2l-4 2-11-3c0 0 0 0 0-1z m2 18l-2 1 0 0z m-1-14l-1 2-1 0z m9 13l2 6-10-3z m2-14l3 5-3-4c0 0 0 0 0-1z m1 11l0 0-2 1 0-1z m-8-22l1 1c-1 0-1 0-2 0l0 0z m2 15l1 1-7-2 1-1c1 1 3 2 5 2 0 0 0 0 0 0z m1 3l1 2-14 0 5-5z m2-1l-1 0 0-3c0 0 0 0 0 0z m2 3l-2 0 0-1 1 0z m1 0l2 0c0 0 0 0 0 0l-1 0z m2 14l-1 0 0-1 1 1c0 0 0 0 0 0z m0-2l-2 0-2-7 3-1 3 6c-1 1-1 2-2 2z m2 20c-1 1-3 1-4 2l-18-19 18 0z m1-22l-3-7 0 0c1 2 2 3 4 3l0 4c0 0-1 0-1 0z m0 22l-4-17 1 0c0 3 2 4 4 5l0 12c0 0-1 0-1 0z m-2-34c-1 0-1 1-1 1l-3-1-2-4c0 0 1-1 1-1z m1-1l-4-7c0-1 0-1 0-2 0-1 0-1 0-2l6-2 0 12c-1 0-1 0-2 1z m38 9l-18 6c0 0 0-1 0-1z m11-4c0 0 0 0 0 0l-31 8 3-8z m-38 13c0 2 1 3 2 4l-7 13c-1 0-2 0-3 0l0-12c3-1 4-2 5-5z m0-2c0 0 0 1 0 1l-3 0z m0-11l3 8c-1 0-1 0-1 0l-6-6c0 0 1-1 1-2z m53 14l-53 21c-1-2-2-3-3-4l6-14c1 1 1 1 2 1 2 0 5-2 5-5l43 0c0 0 0 1 0 1z m-58-11l6 6c0 0 0 1 0 1l-5 1c0-2-2-3-4-3l0-4c1 0 2 0 3-1z m9 5l-3-8 7 0-2 8c0-1-1-1-1-1 0 0-1 0-1 1z m6 4l28-10c1 2 4 4 6 4 2 0 4 0 5-1l5 4c-1 1-1 2-1 3l-43 0c0 0 0 0 0 0z m-49-43c0 0 0 0 0 0l-4 14c-1 0-1-1-2-1z m9 37l-8 2-1 0 8-2z m-4 6l-3-2 9-3 12 4 0 1z m-3-43c1 0 1 1 2 1 2 0 3-1 4-1l5 9-16 5z m6 35l-6-2 3-2 15 0 1 1z m-4 9l19 20c0 0 0 0 0 0l-27-18c0-1 0-1 0-2l8 0z m-15-9l-6 4 5-5c0 1 1 1 1 1z m-6 6l7-5 0 3c-1 0-2 0-3 2l-4 1c0 0 0-1 0-1z m1 2l2-1c0 0 0 1 0 1z m-3-4l5-11 4-6c0 0 0 0 0 0l0 3c-1 0-3 1-4 3 0 1 0 1 0 2 0 1 0 2 1 3l-6 6c0 0 0 0 0 0z m19-5l-2 2-3-3c0 0 1 0 1-1z m0 6l-4 1c0 0-1 0-1-1l1 0 3-1z m7-17l-9 6-2 0c0 0 0 0 0-1l11-5z m-9 8l5 0-2 2-4-2z m6-2l-4 0 9-5 1 0z m2 7l-7 1 0 0 2-3z m-10 7l5-2 2 2-7 0c0 0 0 0 0 0z m115-4c0 0-1-1-1-1 0 0 0 0 0 0l-1-3 5-4z m-6 3c0 0 0 1 0 1l-3 0c0-1-1-1-1-2l1-1z m3-6l0 3c-1 0-1 0-2 1l-2-1z m32-37c-1 2-1 3-1 4 0 3 1 5 2 6l-24 18 13-33z m-44-13l0 46-6-5c-1-1-2-3-4-3l9-38c0 0 1 0 1 0z m0 51l0 2c-1 0-2 0-2 0l-5-4c0-1 0-1 0-1z m0-3l0 2-6-3c0-1 0-2 0-3 0 0 0 0 0 0z m2-48l9 49-4 3-6-5 0-47c1 0 1 0 1 0z m1 0c3-1 5-2 6-4l24 12-14 35-6 5z m2 54l-1 0c0-1-1-1-3-1l0-1z m1-1l0 0-5-3 0-1z m39-29c1 0 1 0 1 0l-29 29c0 0 0 0-1 0l4-9z m8-17c-1 0-2 0-4 1l-4-9-1 0 4 9c-1 1-3 2-4 4l-9-5 2-7-1-1-3 7-23-12c0-1 0-2 0-3l21 0 0-1-21 0c0-2-1-4-2-6l8-8-1-1-8 8c-1 0-2-1-3-1l4-12-1-1-4 12c-1 0-1 0-2 0l0-10-1 0 0 10c-4 0-7 3-8 6l-16-6-1 2 16 5c0 1 0 1 0 2l0 1c0 2 1 3 1 4l1 2c1 1 3 2 5 3l-10 37c0 0 0 0 0 0l-1-1-1 1c-1 1-2 1-3 2l-1 1c-1 1-1 2-1 3l-28 0 6-16-2-1-5 17-8 0 0 0-1 0-3 0c0 0-1-1-1-2l2-2-1-1-2 2c-1 0-2-1-3-1l0-12 1 0-1-2 0-1-1 0 0 2-6 2c0-1-1-1-1-2l3-3-1-1-3 3c-1 0-2-1-4-1l-1-1 7-3 0-1-7 2-6-9c1 0 2-1 2-3l1-1c1-1 1-3 1-4 0-1 0-1 0-2l30-8 0-1-31 8c0-1 0-1 0-1l34-17 3 2-4 6 1 1 4-6 1 1 1-1-1-1 0 0-1-1-3-2 4-2-1-1-4 2 0-1-1 1-34 18c0-2-1-3-2-3l15-23-2-1-14 23c-2-1-4-2-6-2-1 0-2 1-4 1l-4-8-1 0 4 9c-2 1-4 4-5 6l-51-10c0 0 0 0 0 0 0-2 0-3-1-3l5-5-1-1-5 5c0-1-2-2-3-2-1 0-3 1-3 2l-1 0 9-5-1-1-9 5-1 0-1 1 1 1 1 0 1 0c0 1-1 1-1 2l-3 0 0 1 3 0c1 2 1 3 2 4l-2 4 2 1 1 0 1-4c1 0 1 0 1 0 3 0 4-2 5-4l51 11c0 0 0 0 0 1 0 1 0 2 0 3l-64 21 0 2 65-22c0 2 2 4 4 5l-6 13c-1 0-1 0-2 0-3 0-5 2-5 5 0 1 1 3 2 4l-12 18c-2 1-3 2-3 4l-1 2 1 0c0 1 1 1 1 2l-5 4 1 1 5-4c1 0 2 1 3 1 2 0 3-1 4-3l1 1 1-1-1-1c0 0 0 0 0-1l3 0c0 1 0 1 0 1l-1 1 1 1 1-1c1 2 2 3 4 3 2 0 3-1 4-2l26 18-35-18-1 1 37 19c-1 1-1 2-1 3 0 0 0 1 0 1l-115 11 0 2 115-12c1 5 5 8 10 8 5 0 9-4 9-10 0-1 0-2 0-3l52-21c1 2 3 3 5 3 2 0 4-2 5-5l3 0c0 3 2 5 5 5 3 0 5-3 5-5 0-2 0-3-1-4l29-29c1 2 4 3 6 3 6 0 11-5 11-11 0-1 0-2-1-4l11-5-1-2-10 6c-1-1-2-2-3-3l6-9-2-1-5 8 4-8 1 0 1-1-1 0 0-1-1-1 0 1-1 0 0 2-5 9c-1-1-2-1-4-1z m-225 70c-1 1-2 1-3 2l-4-4-1 1 4 4c-1 1-1 1-1 2l-10-3-1 2 10 2c0 1 0 1 0 1 0 1 0 2 1 3l-5 2 0 2 5-3c0 0 0 0 1 1l0 1 1 0c1 1 2 1 4 1 4 0 7-2 7-6l11-4-1-2-10 4c0 0 0 0 0 0l10-4 0-1-11 3c-1-2-3-3-5-4l0-5-2 0z m1-91c-1 0-2 0-3 0l0 0-16-16-1 1 16 16-4 1 0 2 4-2c-1 1-1 1-1 2l-3 0 0 1 3 0c0 3 2 4 4 5l2 0c2-1 4-2 4-5l0-1c0 0 0-1 0-1l2-1-1-1-2 1c0-1-1-2-1-2l0 0 0-2z m-3-154c0-1 1-1 1-2 0-2-1-3-1-4l-1-1 0 0c-2-4-5-6-9-6-6 0-11 5-11 11 0 1 1 2 1 3l0 1c1 2 3 4 5 5l0 0 1 1c1 0 2 0 3 0l2 0c0 0 1 0 1 0l-1 2 1 1 3-4c1 0 2-1 3-3l6 4 1-1-6-4c0 0 0 0 0 0l2-2z m-21 31l0 1 1-1c1 0 1-1 1-1l3 4 1-1-3-4c1-1 2-3 2-4 0-2-1-4-2-5l7-7-1-1-7 7c0 0 0 0-1 0l6-11-1-1-6 11c-1 0-1 0-2 0-3 0-5 1-6 3l-1 1c0 1 0 1 0 2l-1 1 1 0c0 2 1 3 1 4l1 1c1 0 1 0 1 1l-7 14 1 1 7-15c1 1 2 1 3 1 0 0 1 0 2-1z m40-36l8 23c-1 1-2 1-3 2l-18-12 6-14c2 1 3 1 4 1 1 0 2 0 3 0z m1-1l12 24c-1 0-2 0-2 0-1 0-1 0-2 0l-8-24c0 0 0 0 0 0z m3 27c0 1 0 3 0 4 0 0 0 1 0 1l-27 9c0-1-1-2-2-3l11-23z m13 6l3 5 1 0-4-8c0-1 0-2 0-3l15-10-1-1-1-1-14 11c0 0 0 0 0 0l-13-26c2-2 4-4 4-6l36 9 1-1-36-10c0 0 0 0 0-1l46 0-2 6 1 1 2-7 1 0 0-1 6-19-2-1-6 20-46 0c0-6-5-10-11-10-5 0-10 5-10 11 0 1 0 2 1 4l-8 4 1 1 7-4c1 1 1 1 1 2l-8 8 1 1 8-8c1 0 1 0 2 1l-6 13-1 1 0 0-12 24c0-1-1-1-1-1l0-19 1-1-1-1 0-2-2 0 0 3-1 1 1 1 0 18c-1 0-2 1-3 2l-1 0-1 1-4-3-1 1 5 3c-1 1-1 2-1 3 0 1 0 2 0 3l1 1c1 2 3 3 5 3l0 28c-1 0-1 1-2 1l-1 1c-1 1-1 2-1 3 0 1 0 1 0 1l-26 9 1 1 25-8c1 1 3 2 4 2l2 0c0 0 0 0 1 0l0 0 1 0c1-1 2-3 2-4l28 0 0-1-28 0c0-3-2-5-4-5l0-28c3 0 6-3 6-7 0 0 0-1 0-1l26-9c1 2 4 4 7 4 0 0 1 0 1 0l7 19-1 2 1 1 3 7 1-1-3-9 2-6-1-1-2 5-6-18c1 0 1-1 2-1l3 4 1-1-3-4c1-1 1-2 1-2z m-66 132l15 0 0-1-15 0c0-2-1-4-3-5l-1-1c-1 0-2 0-2 0-1 0-1 0-2 0l-1-3 10-10-1-1-9 9-2 1 0 0 0 0-1 1 0 1 0 0 1 1 1 2c0 0-1 0-1 0l-1 1c-1 1-1 2-1 4l-2 0 0 1 2 0c0 2 1 4 3 5l0 1 1 0c1 0 2 1 3 1 2 0 4-1 5-3l26 18 1-1-26-18c0-1 0-2 0-3z m-15 35c3-2 5-5 5-9 0-3-2-6-5-8l6-12-1 0-6 12c-1-1-2-1-3-1l0-12-1 0 0 12c-5 0-9 4-9 9l0 1c0 1 0 1 0 2l-7 2 0 2 8-3c1 2 2 4 5 5l-2 5 2 0 1-4c1 0 1 0 2 0l1 0c1 0 2 0 3-1l4 9 2-1z m45-13c0 0 0 1-1 1l-1-1-4-13z m2 13l-1-4c0 0 1 0 1 0l2 0c0 0 1 0 1 0l-1 4 1 0 2-6c1 0 1-1 1-3 0 0 0 0 0 0l6-17-1 0-5 15c-1-1-1-1-2-2l7-13-2-1-6 14c-1-1-1-1-1-1l0-16-2 0 0 16c0 0 0 0 0 1l-9-18c1-1 2-2 2-4l0-1c0 0 0 0 0 0l0-2 0 0c-1-1-3-3-5-3-1 0-1 1-2 1l-6-14c0 0 1-1 1-1l1-1c0 0 0 0 0 0l0 0 1-1c1-2 1-3 1-5 0-3-1-5-2-6l-1-1c-1-1-2-2-3-2l9-26-1-1-9 27c-1-1-1-1-2-1-4 0-7 2-8 5l0 0-1 1c0 1-1 2-1 3l-12 0c0-1 0-1 0-2l-2-4-1 0 0 2c0 0 0 0-1 0l0-2-1 0 0 2c-3 0-4 2-5 4l-3 0 0 2 3 0c0 0 0 0 0 0l-3 1 0 1 4-1c1 2 2 3 4 3l1 0c0 0 1 0 1 0l6 12 1-1-6-12c1 0 1-1 2-2l4 14 2-1-5-14 11 0c0 2 1 4 3 5l1 1c0 0 0 1 1 1l-6 12 1 1 6-12c1 0 3 0 4 0 1 0 2 0 3 0l7 13c-1 1-2 2-2 4l0 1c0 3 2 5 5 5 0 0 1 0 1 0l5 16-1 1 2 1 1 3c0 0 0 0 0 0 0 1 0 2 1 3l-1 0 1 1 2 5z m44-98l0 0-2 4c0 0 0 0-1 0l0-3c1 0 2-1 3-1z m1-1l0 0 0 0 0 0c0 0 0 0 0 0z m1-4l1-1-1 3 0 0c0 0 0-1 0-1 0-1 0-1 0-1z m6 13l-6 0c0-1-1-2-2-3l1-4z m-5-25c0 1 1 3 2 4l-5 5c-1-1-2-1-3-1l0-8z m2-5c-1 1-2 2-2 4l-6 0 0-11z m0-8l1 1-5-1z m1 18c0 0 0 0 0 0l-2 4-3 1c0 0 0 0 0 0z m0-15l1 3c0 0-1 0-1 1l-7-7z m7 17l-7 2 2-3c0 0 1 0 2 0 1 0 2 0 2 0z m-11 9l16 8c0 1 0 1 0 1l-8 0-8-8z m17 20c0 0 0 0 0 0l-17-8c0-1 0-1 0-1l8 0z m1-14c0 0-1 1-1 1l-16-8 2-4 8-3z m4 9c1 0 2-1 3-2l3 3-4 3c0 0-1-1-2-1z m5-12l6 6-7 0c0-1-1-2-2-3z m-15-14l1 1-1 0 0-1c0 0 0 0 0 0z m7-10l-5 1c-1-2-3-4-6-4-1 0-1 0-2 0l0-2z m-5 12l11 10-2 4c-1 0-1 0-2 0 0 0-1 0-1 0l-7-14z m4 28l-8-8 6 0c0 2 2 4 4 4l0 3c0 0-1 1-2 1z m-59-14c-1-1-2-2-4-2-1 0-2 0-2 1l-4-9 26-9c0 1 1 1 1 2z m69 22l-5 14c0 0-1 0-1 0l0-12c2-1 3-2 4-3z m5-16l-4 3-3-2c0 0 0-1 0-1z m-4 5l2 2-2 7-3-1c0 0 0 0 0-1 0-1 0-2-1-3z m3 0l-2-1 3-2z m-38-11c0 0-1 0-1 0l-3-6 0 0c1 1 2 3 4 3z m-43-1c0 0 0 0 0 1l-5-5c1-1 1-2 1-3 0-1 0-1 0-1l0 0z m41 11l-9 28c0 0-1 0-1 0-2 0-3 1-4 1l-18-29c1-1 2-2 2-4l28 0c0 1 1 3 2 4z m-8-25l4 8-27 9c0 0 0-1 0-1l16-17c1 1 3 1 5 1 0 0 1 0 2 0z m2-1l5 5c-1 0-1 1-1 3 0 0 0 0 0 1l-1 0-4-9c0 0 1 0 1 0z m30 37l-29 20c-1-1-2-2-3-2l10-29c0 0 0 0 1 0 1 0 3-1 4-2l17 9c0 0 0 1 0 1 0 1 0 2 0 3z m-22-43l-6 0c0-2 0-3-1-4l7-7z m-6 1l6 0 0 8c-1 0-2 0-2 1l-5-5c1-1 1-3 1-4z m24 66l-24 0c0-1 0-2 0-3l29-20c1 1 2 1 3 2l0 12c-4 0-8 4-8 9z m-24 1l24 0c0 5 4 9 9 9 1 0 3 0 4-1l1 0 0 0c3-2 5-5 5-9 0-1 0-1-1-2l21-7-1-1-20 6c-1-2-3-4-5-5l4-14 1-1 2-8 20 14 0-2-19-13 2-6 1-1-1 0 11-32-2-1-9 29-1 0 0 2-7-6 7-10-2 0-5 8 5-10-1-1-6 11-9-10 12-4 0-1-13 4-2-1c1-1 2-3 2-4l12 0 0-1-12 0c0-1 0-1 0-1l6-2 7 2 0-2-5-1 18-6 0-2-20 7-16-5 0-2 36 0 0-2-37 0 0 0-1 0-8 0 0-19-1 0 0 15-1 1 1 4-8 8c-1-1-1-1-2-1l6-18-1-1-6 18c0 0-1 0-1 0-4 0-7 3-7 7l0 1c0 0 0 1 0 1l-27 9-3-6-1 0 3 6 0 0c-1-1-3-2-4-2l0-4-2 0 0 4c-2 0-4 2-4 4l0 1c0 1 0 1 0 2l-29 20c-1-1-3-2-5-2l0-11-1 0 0 11c-4 0-7 3-7 6 0 2 1 4 2 5l1 1c1 1 2 1 4 1l1 0c0 0 1 0 1 0l1 0 0 0c1-1 3-2 3-3l12 6 1-1-12-6c0-1 0-2 0-3 0-1 0-2 0-3l29-20c1 1 1 1 2 1l0 0 1 1c0 0 1 0 1 0 1 0 2-1 3-1l5 5c-1 1-2 2-2 4 0 2 1 3 2 4l-15 16 1 1 15-16c1 1 3 2 4 2 1 0 2 0 3-1l19 29c-1 1-2 3-2 5 0 1 0 1 0 2l-15 5-23-15-1 1 22 14 0 2 1-1 2 2 1-1-1-1 11-4 1 1 3-1c0 0 0 0 0 1l1 1c1 1 3 1 5 1 3 0 6-3 6-6z m1-52l3 7c-1 1-2 2-2 3l-28 0c0 0 0 0 0-1z m-77-2l25 0 0-1-25 0c0-1 0-1 0-2l-1-1c-1-3-4-6-8-6l0-20-1 0 0 20c-4 0-6 2-8 5l-9-5-1 1 9 5c0 0 0 0 0 1l-11-3 0 1 11 3c0 1 0 1 0 2 0 1 0 2 0 3l-50 20 0 1 51-20c1 3 4 5 8 5l1 0c5 0 9-4 9-9z m24-50l-1-1-14 7c0-1-1-2-2-2l-1-1c-1 0-2 0-2 0-1 0-1 0-2 0l-1-3 11-12-1-1-10 11-2 1 0 0 0 1 1 1 1 2c-2 1-4 3-4 6l-2 0 0 1 2 0c0 1 0 2 0 3l-6 4 0-2-1 0 0 3-1 1 1 1 1 0 0-1 7-5c2 1 3 2 6 2 1 0 3 0 4-1l18 18 1-1-18-18c1-1 2-3 2-5 0 0-1-1-1-2z m-27 198l13 0 1 3-14-3c0 0 0 0 0 0z m-3-10l-1 2c-1 0-1 0-2 0l0-2z m20 29c0 0-1 1-2 1l-16-17c0 0 1-1 1-2l14 4z m11-12l-13-3-1-4 12 0 0-2-12 0-1-3-2 0 1 3-12 0c0-2-1-4-3-5l1-2 0 0 1-1 4-8-2-1-4 8-3-1 0-9 4-1-1-2-3 2-1 0 0 0-1 1 1 1 0 8-1 1 1 0 0 3c-2 0-3 1-4 2l-1 1c-1 1-2 2-2 4 0 4 4 7 7 7 2 0 4-1 5-2l16 17c-1 2-1 3-1 5 0 4 3 7 7 7 4 0 7-3 7-7l0-2c0 0-1 0-1 0l15-6 0-1-6 2 0-2-9 5c-1-1-2-2-3-2l6-11 0 0 1-2 1-2-2 0z m-6 12c-1 0-1 0-2 0-1 0-1 0-1 0l-4-14 13 3z m-18-250l19-7 0-1-20 6c-1-4-5-6-10-6-5 0-10 4-10 10 0 1 0 3 0 4l-60 31 1 1 60-31c2 3 5 6 9 6l0 24c-3 1-5 3-5 5 0 1 0 2 1 2l0 0 0 1c0 0 0 0 0 1l-16 16 1 1 16-16c1 0 2 0 3 1l1 0c2-1 4-3 4-5l0-1c0-1 0-2-1-3l6-5-1-1-6 5c0 0-1 0-2-1l0-24c1 0 1 0 2 0l6 19 2-1-7-19c2-1 4-2 5-3l10 7 1-1-10-7 10 5 1-1-11-6c1-1 1-2 1-4 0-1 0-2 0-2z m-7 198c0 0 0 1 0 2l-3-1 0-3z m39 26l9-29c0 0 0 0 0 0l0 34-5 0c0-2-2-4-4-5z m-23-13l15 15c-1 0-1 1-2 2l-14-4-2-11c1 0 2-1 3-2z m32-26l-1 0 0 0c-2 1-3 3-3 5 0 0 0 0 0 1l-25 8c0 0 0-1 0-1l26-18-1-1-26 18c-2-3-5-4-8-4-2 0-3 0-4 0l-2 1 0 0c-1 1-2 2-3 3l-4-3 0-8-1 0 0 7-1 1 1 1 0 4-6-1 2-6-1 0-2 5-12-3 0 2 11 3 2 0 0 0 6 1 0 9 1 0 0-8 2 0c0 1 0 2 0 2 0 2 0 3 1 4l1 2c0 1 2 2 3 3l0 0 2 1c1 0 2 1 4 1 0 0 1 0 1 0l3 10-12-3-1 1 13 3 0 1 2 0 13 3c0 0 0 0 0 0l0 2c0 2 1 4 3 5l2 0c0 1 1 1 2 1 2 0 3-1 4-2l1-1c1-1 2-2 2-3l39 0 0-2-32 0 0-34c1 0 2-1 2-1l1-1c1-1 1-2 1-3 0-1 0-1 0-1l0-2 0 0c-1-1-2-1-3-2l0 0-1 0c0 0 0 0 0 0l0-4-2 0 0 4c0 0 0 0 0 0z m-1 9l-10 29c0 0-1 0-1 0-2 0-3 1-4 2l-15-15c2-2 3-4 3-7 0-1 0-2 0-3l25-8c0 1 1 2 2 2z m-66-67l-15 5 0 2 18-6c0 0 0 0 1 0l0 0 1-1 0 0 1 0 1-1 0 0 0-1c0 0 0-1 0-1l0-2c0-1 0-2-1-2l5-5-1-1-5 5c-1-1-2-1-3-1-3 0-5 2-5 5 0 0 0 1 0 1l-13 7 1 1 13-6c0 0 1 1 2 1z m7 95l3 4 1-1-3-4c0-1 0-1 1-2l5 1 1-1-6-1c0-1 0-1 0-1 0-1 0-2 0-3l6-3-1-1-6 3c-1-1-2-2-3-3l4-11-2 0-3 11c-1 0-1 0-2 0 0 0-1 0-1 0l-2 0c0 0-1 1-1 1l-1 1c-1 1-2 3-2 5 0 3 3 7 7 7 2 0 3-1 5-2z m-27-149l-12-3 0 1 13 4c2 2 5 4 8 4 2 0 3-1 4-1l2 0 0-1c1-1 2-2 2-3l0 0 1-1c0-1 0-2 0-4 0-1 0-3-1-4l18-12-1-1-18 11c0 0 0 0 0 0l-1-1c-2-1-4-2-6-2-3 0-6 2-8 4l-4-1 0 1 3 2c0 1 0 2 0 3l0 1c0 1 0 2 0 3z m14 121l-11-3c0-1 0-1 0-1 0-1 0-1 0-2l8-3z m-17-11l0-6-2 0 0 6c0 0 0 0-1 0l-2-6-1 1 2 5c-2 1-3 2-4 4l0 0 0 1c0 1 0 1 0 2 0 4 3 7 7 7 1 0 3-1 4-2l17 17 1-1-17-17c1 0 1-1 1-2l12 3 5 15 2 0-5-14 0-2 0 0-3-9 4-2-1-1-4 2-1 0-9 3c0-1 0-1-1-2l-1-1c-1 0-2-1-3-1z m44-40l-3 3c0-1-1-1-2-1l0-7z m-39-4l28 10c0 0 0 0 0 1 0 1 1 2 1 3l-18 18c-1-1-2-2-4-2-1 0-1 0-1 1l-9-27c1-1 2-2 3-4z m42 5l-1-1 1-1-1-1-1 1-6-6 0-8-1 0 0 6-8-8-1 1 9 10 0 8c-1 0-1 0-1 0l-9-18-1 1 9 17c-1 1-2 2-2 2l-28-9c0-1 0-1 0-2 0 0 0-1 0-1l2-1 0-2-1-1-2 1c-2-1-4-3-6-3-2 0-3 1-5 2l-1 1c0 0 0 1-1 1l0 0 0 2c0 0 0 1 0 1 0 1 0 1 0 1l0 2c1 0 1 1 1 2l1 1c1 0 3 1 4 1l2 0c0 0 0 0 0 0l9 27c0 0-1 1-1 1l-7-7-1 1 7 7c-1 1-2 2-2 4l0 1c0 2 1 3 2 4l-4 3 1 1 4-3c1 1 2 1 4 1 1 0 1 0 1 0l1 1 1 0 0-1c1-1 2-1 2-2l2 1 1 1 1 0 12 8 0 1 1 0 3 2 1-1-4-2 1-1-2 0-11-7 0-2-1 1-3-2c1-1 1-2 1-3l10 0 0-1-10 0c0-2-1-3-2-4l18-18c1 0 2 1 3 1l1 0c2-1 4-2 4-5l0-1c0-1 0-2-1-2l3-3 1 1z m-56 10c1-1 2-3 2-4 0-2-1-4-2-5l3-3-1-1-3 3c-1-1-3-1-4-1-1 0-1 0-2 0l-1-2 9-2 0-2-9 2 0 0-1 1-3 1 0 1 3-1 1 2c-1 0-1 1-2 1l-2-2-1 1 2 2c-1 1-1 2-1 4l0 1c0 2 0 3 1 4l1 1c1 1 3 2 5 2 0 0 1 0 1-1l6 20 2-1-7-19c1 0 1-1 2-1z m0-84l12 0 0-1-12 0c0-1 0-1-1-1l0-2c-1-1-3-2-4-2-2 0-3 1-3 1l-16-15-1 1 16 15c-1 1-1 1-1 2l-3-1-1 1 2 1 0 1 1 0-3 1 1 1 3-1c0 1 1 2 2 3l0 0 2 0c0 0 0 0 1 0 2 0 4-1 4-3l1 0z m-22 46c1 0 2 0 3 0 1 0 1 0 2 0l1 0 0 0c1 0 1-1 2-1l16 17 1-1-16-17c1-1 1-3 1-5 0 0 0-1 0-2l0-1 0 0c-1-1-2-2-4-3l10-29-2 0-9 29c0 0-1 0-1 0l0-1-1 0-2 0 0 1c0 0-1 0-2 1l-2-2-1 1 2 2-2-2 0 0-2 0 0 1 0 0-3 12 2 0 2-11 2 1c0 1-1 2-1 3 0 2 1 3 1 4l-2 2 1 1 1 1 2-2 1 1z m30-53l1 1 0-1 34-18 0-1-35 18-30-15c1-2 1-3 1-5 0-1 0-2-1-4l-1-1 0 0c-2-3-5-5-9-5-6 0-10 5-10 10 0 1 0 2 0 3l0 2c0 0 1 0 1 0l1 2c0 1 1 1 2 2l1 1c2 1 3 1 5 1 1 0 1 0 2 0l2 11 1 0-2-11c0 0 1 0 1-1l7 13 1-1-6-12c0-1 1-1 1-1l1-1c1-1 1-1 1-2l29 15-7 3 0 2z m-49 95l4 9c-1 1-2 2-3 3l-1 1c-1 2-1 3-1 5 0 6 4 11 10 11 5 0 8-3 10-7l23 8 0-1-22-8c0-1 0-1 0-2l24 0 0 1 1-1 10 0 0-1-5 0 0-11 1-1-1-1 0-20-2 0 0 18-7-7-1 1 8 8 0 13-3 0 0-1-2 1-23 0c0-3-1-5-3-7l14-14-1-1-14 14c-2-1-4-2-6-2l0-16-1 0 0 16c-2 0-3 0-4 1l-4-9z m9-9l-4 0c0 0 0-1 0-1l4-1z m-4 1l24 0 0-1-19 0 0-2 17-5 1 1 1-1 0-1-1 0-1-1-1 1-16 4-1 0 0 1-4 1c-1-2-2-4-3-5l7-10-2-1-5 9-2-1 0 2c-2-1-3-1-4-1-5 0-9 4-9 9l0 1c0 5 4 9 9 9 1 0 2 0 4-1l1 0c2-2 4-5 4-8z m12-81l-2 1 0-2 2 1c0 0 0 0 0 0 0 0 0 0 0 0z m1-3c0 1 0 1 0 1l-3 0 0-1z m0 6c0 0 0 0 1 1l-3 0 0-1z m-2 3l4-1c0 0 0 0 1 0l-3 10z m-36-16l0 0 0 1c0 0 0-1 0-1z m33 7l-15-4 15 3z m-28-8l16-9-1-2-17 11-3-1c0 0 0-1 0-1 0-1 0-2 0-3l19-6 0-2-20 7c-1-4-5-7-9-7-6 0-11 5-11 11 0 3 1 5 3 7l1 1c1 1 3 2 5 2l1 2 2-2c1 0 2 0 3 0l3 7 2 0-1-1 2 0-4-7c0-1 0-1 1-1l8 8 1-1-8-8c0 0 0-1 0-1l4-2 13 3 1 1 0-1 17 5 1 2-24 4 1 1 23-4 0 2 0 0 1 1 0 1 2 12-3 13-19-20-1 1 20 21-1 1 2 0 1-1-1-1 3-11 2 12 2 0-3-15 3-12 0 27 1 0 0-28c1 0 3-1 3-2l2 0-1-1c0-1 0-1 0-1l2 0 0-1-2 0c0-1 0-1 0-1l1-1-1 0c-1-2-3-3-5-3 0 0-1 0-1 0l0 0-1 1c-1 0-1 0-1 0l-5-1 0 0-1 0-15-3 6-9-1-1-7 10z m5 33l3 6-4-6c0 0 0 0 1 0z m13 29c-1 1-1 2-1 3 0 0 0 0 0 1l-27 21c-1-1-2-2-3-2l7-38z m0 5c0 1 0 1 0 1l-13 9z m2-8c-1 1-1 1-1 2l-25-15 2-11c1 0 1 0 2 0 2 0 4 0 5-1z m-27-14l-23-14-1 1 24 15-8 38c0 0 0 0 0 0-1 0-2 0-2 0l-2 0c-2 2-3 4-3 7 0 3 3 7 7 7 2 0 4-1 5-3l25 17 1-1-25-17c0-1 0-2 1-3l10 0 0-1-10 0c-1-1-1-2-1-3l28-19c0 1 1 1 2 2l-6 10 2 1 5-11c0 1 1 1 1 1l-1 1 1 1 0 13 2 0 0-15c1 0 3-1 4-2l12 13 1-1-12-13c0 0 0-1 1-1l12 4 4 10 1-1-3-8 12 4 0-2-12-4-5-13-1 0 4 12-12-4c0 0 0-1 0-1 0-1 0-2 0-2l3-5-1-1-3 4c0 0 0 0 0-1l1-1-1-1-1 1c-1 0-1 0-1 0l2-1-1-1-2 1c0 0 0 0 0 0l-2 0c0 0 0 0-1 0-1 0-2 0-3 1l-15-27c0 0 0-1 0-1l22 15 0-1-21-15c1-2 1-3 1-5 0-1 0-1 0-2l1 0 1-1 20-5 0-1-15 3 14-4 0-2-21 8-1-1c0-1-1-2-1-3l-1-1-1 0 7-10-1-1-7 10c0 0 0 0 0 0l-2-2-1 1c-1 0-2 0-2 0-1 0-2 0-3 0l0 0-2 0 1 1c0 0 0 0 0 0l-2 0c-1 1-2 2-3 4l-1 0 0 1c0 1-1 3-1 4l0 1c0 5 4 9 8 10z m-22-23c0-1-1-3-1-4l14-8-1-2-14 9c0 0-1-1-1-1l10-10-1-1-10 10c-2-2-5-4-9-4-7 0-13 6-13 14 0 7 6 13 13 13 2 0 3 0 4-1l19 48 2 0-19-48c2-1 4-3 5-5l1-1c1-2 1-4 1-6l16 0 0-1-16 0c0 0 0-1 0-1l17-3 0-1z"/>
<glyph glyph-name="clinicalstudiees" unicode="&#114;" d="M388 388l-66 0 0 6c0 4-2 6-6 6l-18 0c-3 24-23 37-42 37-19 0-39-13-42-37l-18 0c-4 0-6-2-6-6l0-6-66 0c-4 0-6-2-6-6l0-301c0-3 2-6 6-6l264 0c4 0 6 3 6 6l0 301c0 4-2 6-6 6z m-234-168l30 0c2 0 4 1 5 3l17 26 20-49c1-3 3-4 6-4 2 0 4 1 5 3l30 70 31-93c1-2 3-4 6-4 0 0 0 0 0 0 2 0 5 1 6 3l22 45 26 0 0-96-204 0 0 96z m204 12l-30 0c-2 0-4-1-5-3l-18-36-31 95c-1 2-3 4-6 4-2 0-4-1-5-4l-31-70-19 46c0 2-2 4-5 4-2 0-4-1-5-3l-22-33-27 0 0 120 36 0 0-6c0-3 2-6 6-6l120 0c4 0 6 3 6 6l0 6 36 0z m-156 156l18 0c3 0 6 3 6 6 0 21 16 31 30 31 15 0 30-10 30-31 0-3 3-6 6-6l18 0 0-36-108 0z m180-301l-252 0 0 289 60 0 0-12-42 0c-4 0-6-2-6-6l0-240c0-4 2-7 6-7l216 0c4 0 6 3 6 7l0 240c0 4-2 6-6 6l-42 0 0 12 60 0z"/>
<glyph glyph-name="education" unicode="&#115;" d="M433 291l-174 91c-2 1-4 1-6 0l-174-91c-2-1-4-3-4-5 0-2 2-4 4-5l57-30 0-62c-14-3-24-15-24-29 0-17 13-30 30-30 16 0 30 13 30 30 0 14-11 26-24 29l0 56 105-55c1 0 2 0 3 0 1 0 2 0 3 0l105 55 0-25c0-28-42-69-108-69-16 0-33 2-52 7-3 1-6-1-7-4-1-4 1-7 4-8 20-5 37-8 55-8 75 0 120 48 120 82l0 31 57 30c2 1 4 3 4 5 0 2-2 4-4 5z m-273-131c0-10-8-18-18-18-10 0-18 8-18 18 0 10 8 18 18 18 10 0 18-8 18-18z m96 43l-99 51 101 26c3 1 5 4 4 8-1 3-4 5-8 4l-113-30-46 24 161 84 161-84z"/>
<glyph glyph-name="facebook" unicode="&#117;" d="M178 383c0-14 0-81 0-81l-60 0 0-99 60 0 0-189 122 0 0 189 82 0c0 0 8 47 12 100-11 0-93 0-93 0 0 0 0 57 0 68 0 10 13 23 26 23 13 0 41 0 67 0 0 14 0 61 0 104-35 0-74 0-91 0-128 0-125-100-125-115z"/>
<glyph glyph-name="icon-boy-1" unicode="&#68;" d="M472 388c0 1-1 2-1 4 0 0-1 1-1 2-27 103-128 118-187 118-46 0-86-9-112-16-63-18-108-47-134-85-25-37-19-84 15-129 1-58 17-109 46-151 28-39 67-69 111-86 3-11 4-22 3-34-2-15 21-15 22 0 1 9 1 18 0 27 8-2 16-4 25-5 10-2 20-2 30-2 27 0 53 5 77 15 2-12 6-23 13-33 8-12 27-1 19 11-7 10-9 21-10 32 14 8 27 18 39 29 65 62 67 161 62 214-3 27-8 56-17 89z m-406-16c-4-1-6-5-7-9-2-9-3-19-4-28-9 25-4 48 12 69 30 38 81 56 117 66 32 9 68 14 100 14 49 0 136-12 159-98 0-1 1-2 1-3 0-1 0-2 1-2 2-11 5-22 7-32-16 3-29 11-40 24-4 4-7 5-10 5-3 0-6-1-8-3-2 0-4 1-6 0-58-8-115-16-173-16-50 0-94 6-135 18-5 2-11 0-14-5z m365-237c-29-47-83-76-144-76l-3 0c-57 1-113 29-153 76-32 38-50 89-51 148 1 2 1 4 0 6 0 19 2 38 5 57 39-10 82-15 130-15 60 0 120 8 180 17 1 0 1 0 1 0 17-17 38-26 61-29 12-75 3-135-26-184z m-240 93c0 10-7 14-14 14-4 0-7-1-10-3-3-3-4-6-4-11 0-6 0-15 2-24 2-6 8-11 14-11 1 0 3 1 4 1 7 2 12 10 10 17-2 6-2 11-2 17z m169 12c-1 6-7 10-14 10-1 0-2 0-4 0-7-2-11-10-9-18 2-10 4-19 7-27 3-6 8-10 14-10 1 0 2 0 4 1 3 1 7 4 9 7 1 4 2 7 0 10-3 8-5 17-7 27z m-172 54c-14 1-28 0-41-5-8-3-10-10-9-17 1-6 6-11 12-11 2 0 4 0 5 1 10 4 20 5 32 3 1 0 1 0 1 0 4 0 7 2 10 5 2 3 4 6 4 9 0 8-6 14-14 15z m179 3c-15 0-30 0-46-1-9-1-14-10-13-17 0-7 5-12 12-12 1 0 1 0 2 0 15 2 30 2 45 2 9 0 14 7 14 14 0 7-5 14-14 14z m-44-144c-27-11-52-12-79-2-8 3-16-2-18-11-1-6 2-14 10-16 15-6 30-8 45-8 0 0 0 0 0 0 17 0 34 3 50 9 8 4 11 11 9 18-1 8-9 13-17 10z m-65 27c14-4 29-5 43 0 13 5 8 26-5 21-11-4-21-3-33 0-13 4-19-17-5-21z"/>
<glyph glyph-name="instagram-1" unicode="&#69;" d="M446 512l-380 0c-36 0-66-30-66-66l0-126 109 0c25 56 82 96 147 96 65 0 122-40 147-96l109 0 0 126c0 36-30 66-66 66z m2-128l-64 0 0 64 64 0z m0-128l-32 0c0-88-72-160-160-160-88 0-160 72-160 160l-96 0 0-190c0-36 30-66 66-66l380 0c36 0 66 30 66 66l0 190z m-96 0c0-53-43-96-96-96-53 0-96 43-96 96 0 53 43 96 96 96 53 0 96-43 96-96z"/>
<glyph glyph-name="kids-arrow-1" unicode="&#70;" d="M276 470c6 6 14 8 23 2 1-1 2-2 3-3 0 0 0 0 0 0 83-58 145-135 204-216 2-3 3-6 3-9 4-5 4-12-1-19-62-81-138-146-232-187-10-4-20 0-26 7-4 5-7 11-6 18l12 82c-54-2-105-4-181-6-2-1-3-1-5-1-15-1-30-2-45-3-12-4-27 2-25 18 7 64 10 128 8 192 0 2 0 4 0 6 0 11 6 22 20 22 71-3 166-5 237-8 2 30 4 60 4 90 0 7 3 12 7 15z m28-125c-1-11-9-18-18-19-2-1-5-1-7-1-69 2-162 5-231 7 1-43 0-85-4-128 2 1 4 2 7 2 110 5 133 3 243 3 11 0 17-9 17-17 1-2 1-4 1-6-2-21-3-43-4-64 57 33 107 75 151 125 0 1 0 1 1 1-45 62-93 121-152 168-1-24-3-47-4-71z"/>
<glyph glyph-name="kids-button-1" unicode="&#72;" d="M6 337c0 0 103 3 168 0 66-3 298-4 329 0 0 0 13-40 8-79-6-39-8-83-8-83 0 0-140 11-183 9-44-2-54-2-78-2-25 0-38 3-51 0-13-3-15-3-35-7-20-3-43 0-64 0-21 0-56-2-70-1-14 1-22-1-22 5 0 5 6 70 6 88 0 18 3 21 0 33-3 12 0 37 0 37z"/>
<glyph glyph-name="kids-dottedline-1" unicode="&#73;" d="M158 263c-1 1-7 2-7 2-2-2 5-3 7-3 2 0 0 1 0 1z m-15 4c0 0-4 2-5 1-2-2 6-3 7-3 3 0-1 2-2 2z m26-7c-1 1-5 2-5 1-2-1 5-3 6-3 4 0-1 3-1 2z m-26 7c0 0 0 0 0 0 0 0 0 0 0 0 0 0 0 0 0 0z m51-13c-1 0-4 1-5 1-2-1 7-3 7-3 4 0-3 2-2 2z m13-3c-1 0-4 1-5 1-2-1 6-3 7-3 4 0-3 2-2 2z m-26 6c0 0 0 0 0 0 0 0 0 0 0 0z m39-9c-1 0-4 1-5 1-2-1 6-3 7-3 4 0-3 2-2 2z m-39 9c-1 1-4 2-5 1-2-1 7-3 7-3 3 0-1 2-2 2z m-38 10c0 0 0 0 0 0z m-44 10c-2-2 6-3 7-3 2 0 0 1 0 2 0 0-6 1-7 1z m26-6c-2-2 6-3 7-3 3 0-6 5-7 3z m-71 3c-1 1-4 0-5-1 1 1-5-2-2-2 1 0 9 2 7 3z m-25-9c-1 0-9-5-6-5 1 0 9 5 6 5z m-12-6c-1 0-8-5-5-5 0 0 8 4 5 5z m-11-7c-1 0-8-6-5-6 1 0 8 5 5 6z m35 18c-1 1-3-1-4-1 1 0-6-3-2-3 0 0 9 3 6 4z m26 7c-1 0-4-1-5-1 1 0-6-2-2-2 1 0 9 1 7 3z m50-4c0 0-4 2-5 1-1-2 6-3 7-3 4 0-3 3-2 2z m111-27c-2-1 6-2 7-2 1 0 0 1 0 1 0 1-6 2-7 1z m-148 32c0 0-7 0-7 0 0-1-1-2 0-2 1 0 9 0 7 2z m6 0c-2-2 6-2 7-2 2 0 0 1 0 2 0 0-7 0-7 0z m268-42c-1 0-7 0-7 0 0 0-2-2 0-2 1 0 9 0 7 2z m105 10c0 0-6-1-7-1 0 0-1-2 0-2 1 0 10 1 7 3z m-13-2c0 0-7 0-7-1 0 0-1-1 0-1 1 0 10 0 7 2z m26 4c0 0-6-1-7-1 0-1-1-2 1-2 1 0 9 1 6 3z m-65-8c-1 0-7 0-7-1-1 0-2-1 0-1 1 0 9 0 7 2z m13 1c-1 0-7 0-7 0 0-1-2-2 0-2 1 0 9 0 7 2z m13 2c0 0-7-1-7-1 0 0-1-2 0-2 1 0 10 0 7 3z m73 11c0 0 0 0 0 0z m5 1c0 1-4-1-5-1 0 0-4-2-1-2 1 0 8 1 6 3z m-5-1c0 0 0 0 0 0 0 0 0 0 0 0 0 0 0 0 0 0z m-21-4c0 0-6-1-6-1-1-1-2-2 0-2 1 0 9 1 6 3z m13 2c0 0-6-1-6-1-1-1-2-2 0-2 1 0 9 1 6 3z m-217-14c-3-2 5-2 6-2 2 0 1 2 0 2 0 0-6 1-6 0z m13-1c-3-2 6-2 7-2 1 0 0 2 0 2-1 0-7 1-7 0z m-53 7c-2-2 6-3 7-3 2 0 0 2 0 2 0 0-6 1-7 1z m66-8c-3-2 6-1 7-1 1 0 0 1 0 1 0 1-7 1-7 0z m-53 6c-2-2 6-3 7-3 2 0 0 2 0 2 0 0-6 1-7 1z m13-2c-2-2 6-2 7-2 2 0 1 1 0 1 0 1-6 1-7 1z m71-4c-1 0-4 0-5 0-1-2 1-2 2-2 1 0 6-1 6 1 0 1-2 1-3 1z m29 1c0 0-7 0-7-1 0 0-1-1 0-1 1 0 10-1 7 2z m6 0c0 0-1-2 0-2 2 0 9 0 7 3 0 0-6-1-7-1z m-53-1c-3-2 6-2 7-2 2 0 0 2 0 2 0 0-6 0-7 0z m73 3c0 0-6 0-6-1-1 0-2-1 0-1 1 0 9 0 6 2z"/>
<glyph glyph-name="kids-pattern01-1" unicode="&#74;" d="M38 473c-1-7-1-15-4-22-12-27-14-56-9-85 3-15 15-21 29-25 2 4 5 8 7 12 8 18 18 34 36 45 13 8 29 1 28-15-1-24-7-46-29-60-12-8-13-12-9-25 9-27 28-45 50-61 11-8 17-3 19 10 2 15 5 30 11 44 9 23 45 40 65 34 20-7 28-32 18-52-13-25-35-38-57-53-3-2-5-7-5-11 3-27 17-50 28-74 7-15 19-29 32-38 14-9 31-17 49-15 12 1 14 4 10 15-8 25-9 50 1 74 3 8 10 15 16 21 18 16 36 29 63 21 23-7 39-32 34-55-4-23-15-42-32-57-6-6-15-11-23-17-3-2-6-5-10-8 22-22 53-22 76-3 24 20 36 46 44 74 6 24 9 49 13 73 1 4 2 9 5 11 3 2 8 4 13 3 2 0 5-6 4-8-2-20-4-40-9-58-11-44-30-83-67-111-21-16-46-23-72-19-9 2-19 11-27 18-7 7-14 9-24 8-27-4-53-5-77 12-24 16-41 37-52 63-8 21-14 42-22 62-1 5-9 9-13 9-35 0-56 19-71 48-9 16-19 31-21 49-1 3-8 7-12 8-22 8-38 20-42 45-3 23 1 44 6 65 3 11 7 22 12 32 3 7 9 12 13 18 2-1 4-2 5-2z m317-281c-11 2-20 0-24-13-9-27-6-54 4-79 3-7 11-9 19-5 7 5 14 9 22 13 13 7 21 15 23 30 2 25-9 58-44 54z m-175 69c0-4-1-7 0-11 1-11 4-14 14-10 9 3 18 8 25 14 12 9 13 27 5 40-10 14-21 15-33 4-10-10-11-23-11-37z m-82 122c-13-12-17-24-19-38 0-2 3-6 5-8 2-1 6 1 8 3 7 4 14 28 11 35-1 3-3 5-5 8z"/>
<glyph glyph-name="kids-pattern02" unicode="&#75;" d="M507 163c-7 7-13 17-16 27-9 24-16 49-23 74-2 4-3 10-5 14-9 17-24 16-39 14-17-1-33-16-37-32-1-4-2-8-4-12-6-9-12-17-17-26-6-10-12-11-21-3-12 10-16 23-18 38-2 17-5 33-8 49-2 14-13 20-27 17-14-3-25-11-36-19-13-10-26-18-36-30-15-18-41-21-50 8-4 12-6 24-9 37-3 11-4 25-11 32-12 13-29 15-45 7-15-8-28-18-43-26-11-6-25 0-28 12-3 12-4 24-7 36 0 3-2 9-3 9-5 0-11 0-13-3-8-9-13-20-10-32 3-12 8-24 14-35 3-5 9-11 14-12 13-2 27-2 39 7 8 6 16 11 23 17 11 9 20 9 32 2 12-8 12-19 11-31 4-16 8-32 13-47 2-5 7-10 12-13 17-8 33-6 49 2 20 10 34 28 48 44 6 8 14 12 24 9 9-2 14-8 16-19 4-22 1-45 12-67 11-21 34-36 57-16 11 10 19 24 27 36 7 10 11 21 17 30 7 10 17 10 23-1 6-13 12-26 17-40 8-21 14-42 22-63 7-17 20-21 34-11 6 4 11 8 2 17z m-256 42c-2 5-5 14-13 10-5-2-8-9-10-12 3-28 10-51 24-72 4-5 7-11 14-7 7 5 13 11 9 21-8 20-15 40-24 60z"/>
<glyph glyph-name="kids-pattern03" unicode="&#76;" d="M478 455c0 5 0 11 0 17 1 18 1 40-22 40-15 0-30-14-43-25-6-4-7-16-8-24-7-57-14-115-19-172-1-10 9-24 17-29 7-3 22 3 29 9 9 6 16 17 18 27 13 52 23 104 34 156-2 0-4 0-6 1z m-249-161c-57 5-115 11-172 14-10 0-24-9-28-18-4-7 3-21 9-29 7-8 18-15 28-17 52-11 104-20 156-30 0 2 1 4 1 6 6 0 11 1 17 1 18-1 41 0 40 23-1 14-15 29-26 42-5 5-16 7-25 8z m188-123c-11-13-30-24-33-38-8-37-12-75-12-112-1-21 19-27 37-14 31 22 33 56 34 89 1 25 13 55-26 75z"/>
<glyph glyph-name="kids-question" unicode="&#77;" d="M302 512c0 0-1 0-1 0 0 0 0 0 0 0-122 4-250-67-238-203 0-1 0-1 0-2 0-1 0-3 0-4 7-32-4-59-29-78-1-1-2-2-3-3-3-2-5-4-6-8-5-13-1-27 10-37 2-2 4-3 6-3 7-4 15-7 22-9-1-8 0-17 4-25-8-15-3-31 12-41 1 0 2 0 3-1 3-3 3-8 2-12 0-2-1-3 0-5 0-1 0-2 0-4 4-21 22-32 42-33 1 0 2 0 3 1 1 0 2 0 3 0 33 5 71 2 83-34 3-7 9-10 15-9 2-1 5-2 8-2 60 4 119 13 179 21 2 0 4 1 5 2 7 2 13 10 9 19-40 74 40 154 56 225 0 2 0 3 0 5 16 116-65 229-185 240z m159-235c0-1 0-2 0-3-16-76-89-150-60-229-54-8-108-15-163-19 0 0 0 0-1 0-19 43-65 51-109 44-1 0-1 0-2 0-5 0-7 1-11 3 0 0-2 2-2 2-1 1-1 1-1 1 0 0 0 0-1 1-1 1-1 3-2 5 3 16-2 30-15 40-1 1-2 1-4 2 0 0 0 0-1 1 0 0 0 0 0 0 0 0 0 1 0 0 0 1 0 2 0 3 0 0 2 3 3 3 2 3 2 6 2 9 0 3 0 6-2 9-5 7-4 13 0 20 6 11-5 21-14 20 0 0 0 0 0 0-9 1-18 4-26 8 0 1-1 1-2 1 0 1 0 1-1 2 0 0 0 0 0 1 0 0 0 0 0 0 0 1 0 1 0 2 0 0 0 1 0 1 33 26 48 62 40 103 0 1 0 1 0 2-10 123 104 181 212 177 0 0 0 0 1 0 0 0 0 0 0 0 103-9 174-109 159-209z m-186-58c-30 0-30-46 0-46 29 0 29 46 0 46z m-96 199c-9-7-15-19-8-31 6-10 22-16 32-8 30 23 74 31 106 6 7-5 10-9 13-15 2-2 2-6 1-8 0 1-2-5-1-3-3-4-6-6-9-8-12-8-26-11-39-14-4-1-6-2-8-3-9-3-17-10-17-22l0-38c0-29 46-29 46 0l0 21c27 7 55 19 68 44 13 25 4 51-14 71-42 48-122 45-170 8z"/>
<glyph glyph-name="kids-rocket" unicode="&#78;" d="M361 248c-1 0-1 0-1 1 1 39-1 75-5 108-6 46-21 112-69 153-2 1-5 2-7 2-27 0-76-108-76-109-20-47-31-93-34-140-1-4-1-7-1-11-1 0-1 0-2 0-53-25-85-83-86-158l-1-2c-2-4-1-7 0-10 3-3 7-5 11-5 5 0 9 2 12 7 1 1 1 2 2 4 14 32 41 58 78 74 0 0 1-1 2-1 4 0 9 0 13 1l4 0 0-29c0-1 0-2 0-3 0-6 3-11 9-12 1-1 3-1 5-1l0 0c-3-38 17-64 38-91 5-6 10-13 14-20 2-3 7-6 12-6 5 0 10 3 12 8 4 11 9 21 13 30 12 23 23 45 21 73 6 1 11 5 12 12 1 13 1 26 1 42l3 0c0 0 0 0 1 0 42-7 61-43 65-76 1-7 8-11 14-11 5 0 10 3 11 8 0 1 1 3 1 5 7 70-20 129-72 157z m-251-107c7 29 23 63 58 84 0-14 1-28 3-42-24-10-44-24-61-42z m171-96c-2-3-3-7-5-10-1 2-2 3-3 4-17 22-35 44-34 72 3 0 6-1 9-1 3-14 9-27 18-40 2-5 7-8 12-8 3 0 6 1 9 3 2 3 5 6 7 9-3-10-8-19-13-29z m-7 63c5 0 9 0 13 0-2-5-5-9-8-13-2 4-3 9-5 13z m39 27c-29-4-58-3-87 5l0 22c29 0 59 1 87 2 0-8 0-19 0-29z m18 53c-4 0-19-2-83-2-24 0-46 0-52 0-12 105 15 205 82 296 38-38 49-95 54-141 5-44 4-93-1-153z m24-1c2 11 2 23 3 34 23-15 38-37 46-65-13 15-29 25-49 31z m-46 170c-9 11-20 17-33 17-18 0-37-13-47-34-5-10-8-22-9-36 0-16 6-32 17-44 9-9 19-13 30-13 4 0 8 1 13 2 13 5 24 16 32 32 9 19 11 43 5 61-2 6-5 11-8 15z m-16-56c-3-11-12-22-23-25-9-3-16 1-21 11-6 11-3 29 2 41 3 7 15 20 24 20 1 0 2 0 3-1 15-5 18-30 15-46z"/>
<glyph glyph-name="kids-shopping" unicode="&#79;" d="M497 178c-112-11-224-30-337-16 0 1-1 1-2 1-10 4-14 11-13 20 9 14 29 13 44 12 20-2 40-2 60-1 52 0 104 4 156 10 28 4 57 8 85 13 9 2 12 9 11 16 1 1 1 1 1 2 1 61 3 122 9 182 1 10-5 15-13 15-1 1-3 1-6 1-131-8-262-9-393-11-1 1-2 2-3 3-23 17-49 30-77 38-19 6-27-24-8-29 72-21 105-84 118-154 5-21 7-42 8-63 0-1-18-16-20-19-4-8-5-18-3-27 6-26 28-37 53-42-4-5-8-12-10-20-1-3-1-5-1-8 0-14 4-28 15-38 11-11 27-14 41-15 2 0 4 0 5 0 0 0 1 0 2 0 27 5 46 25 49 52 1 10-2 19-7 27 43 1 85 4 127 9-4-6-7-12-9-18-11-35 23-59 55-61 2 0 3 0 5 1 0 0 1 0 1 0 28 4 47 24 50 52 1 14-5 26-14 35 7 1 14 2 21 2 20 2 20 34 0 31z m-26 67c-25-4-50-7-75-10 0 11 0 23-1 35 26 0 51 0 77 0-1-8-1-16-1-25z m2 56c-27 0-53 0-79 0 0 9-1 18-2 27 28 1 55 1 82 1-1-10-1-19-1-28z m6 100c-2-14-3-27-3-41-29 0-57 0-86-1-1 13-2 25-3 38 31 1 61 2 92 4z m-114-170c-29-3-59-5-88-6-2 13-4 27-5 40 30 2 61 3 92 4 0-13 1-25 1-38z m-2 69c-32-1-64-2-95-5-2 10-3 20-4 30 32 1 65 2 97 3 1-10 1-19 2-28z m-7 96c1-12 2-25 3-37-33-1-66-2-99-3-1 13-3 25-4 37 34 1 67 2 100 3z m-110-171c-26-1-52 0-78 1-1 9-2 19-3 28 25 3 50 6 76 8 2-12 3-25 5-37z m-9 68c-26-2-52-5-77-9-3 14-6 27-10 40 28 0 55 0 82 1 2-11 3-21 5-32z m-117 98c35 1 70 1 105 2 1-13 2-25 4-37-30-1-60-1-90-1-5 13-12 25-19 36z m93-312c0 0-1 0-1 0-17 1-25 7-25 23 5 14 16 19 28 20 12-2 22-8 22-22 0-13-13-19-24-21z m222 9c-1 0-1 0-1 0-17 1-25 7-25 23 5 14 15 20 28 21 12-3 22-9 22-22-1-13-14-20-24-22z"/>
<glyph glyph-name="kids-speachbubble" unicode="&#80;" d="M4 396c0 0 0 1 0 1 1 8 2 14 6 20 5 5 12 7 19 8 0 0 0 0 1 0 0 0 0 0 0 0 28-1 47 5 74 6 0 0 33 1 33 1l337-4c0 0 0 0 0 0 1 0 1 0 1 0 14 0 25-7 28-22 0 0 0-1 0-2 0 0 0 0 0 0 2-18 2-36 3-54 0-10 6-179 6-189 0-9-5-27-10-36-5-7-12-10-21-11 0-1 0-1-1-1 0 0 0 0 0 0 0 0-1 0-1 0-17 2-165 11-377 0-2-1-3-1-4-2 0 0 0 0 0 0-19-11-38-21-57-30-4-2-8-1-10 2-1 2-2 4-2 6 1 1 1 2 1 2l9 23-7 0c0 0-1 0-1 0-6-1-13 0-18 4-10 7-10 22-11 33 0 16-3 157-2 174 0 9 4 62 4 71z"/>
<glyph glyph-name="logo-butterfly" unicode="&#81;" d="M328 171c-28 0-43 81-55 125-1-9-3-19-2-22 1-11 3-13 4-25 1-12-1-28-2-42 1-9-2-24-3-35-1-18 51-3 58-1m-144 0c28 0 43 81 55 125 1-9 3-19 2-22-1-11-3-13-4-25-1-12 1-28 2-42-1-9 2-24 3-35 1-18-51-3-58-1m81 162c34 0 196-90 162-121-19-8-62-17-64-16-9 4-31 30-46 59 1 1-5 12-5 16-1 3-13 20-16 23-6 6-14 17-19 21-3 2-11 1-15 6-1 1 2 4 2 8 0 1 0 3 1 4m-18 0c-34 0-196-90-162-121 19-8 62-17 64-16 9 4 31 30 46 59-1 1 5 12 5 16 1 3 13 20 16 23 6 6 14 17 19 21 3 2 11 1 15 6 1 1-2 4-2 8 0 1 0 3-1 4m70-78c-4-2-8 7-9 11-2 3 1 4-5 10-3 3-6 7-9 9-3 3-5 7-8 9-10 7-11 11-13 2 12-44 27-125 55-125 11 5 34 14 35 25-9 4-31 30-46 59z m0 0c0 0 0 0 0 0 0 0 0 0 0 0z m-122 0c0 0 0 0 0 0 0 0 0 0 0 0z m31 39c-3-2-5-6-8-9-3-2-6-6-9-9-6-6-3-7-5-10-1-4-5-13-9-11-15-29-37-55-46-59 1-11 24-20 35-25 28 0 43 81 55 125-2 9-3 5-13-2z m39 39c34 0 196-90 162-121l0 0c16 5 31 8 42 8 12-1 41 10 43 21 7 43-231 133-248 101-2-2 1-6 1-9m-18 0c-34 0-196-90-162-121l0 0c-16 5-31 8-42 8-12-1-41 10-43 21-7 43 231 133 248 101 2-2-1-6-1-9"/>
<glyph glyph-name="pinterest" unicode="&#82;" d="M268 498c-136 0-204-97-204-178 0-49 19-92 58-109 7-2 13 0 15 7 1 5 4 18 5 23 2 7 2 10-4 16-11 14-18 31-18 56 0 72 53 136 140 136 76 0 118-46 118-109 0-82-36-151-90-151-30 0-52 24-45 55 9 36 25 75 25 101 0 23-12 43-38 43-31 0-55-32-55-74 0-27 9-45 9-45 0 0-31-132-37-156-2-11-4-23-4-35l-1 0 1 0c0-1 0-1 0-2l-1 0c0 0 0-5 0-11 0-6 3-41 5-47 5-14 30 13 42 41 0 0 0 0 0 0 7 12 12 25 16 38 3 12 20 78 20 78 10-19 39-35 69-35 92 0 154 83 154 195 0 84-72 163-180 163z"/>
<glyph glyph-name="research" unicode="&#83;" d="M431 87l-35 0c17 12 29 32 29 55l0 132c0 37-30 66-67 66l-112 0 13 37c1 2 1 3 0 5-1 1-2 2-4 3l-15 5 6 18 8-3c1-1 2-1 2-1 3 0 5 2 6 4 1 3 0 7-4 8l-22 8-20 7c-1 0-1 0-1 0l-14 5c-3 1-6 0-7-3-2-4 0-7 3-8l9-3-6-17-16 5c-3 1-7 0-8-4l-45-128c-1-2-1-3 0-5 1-1 2-2 3-3l9-3-13-37c-1-3 0-7 3-8l29-10c1 0 1 0 2 0 1 0 2 0 3 0 1 1 2 2 3 4l13 37 23-8c1-1 1-1 2-1 2 0 5 2 6 4l21 62 41-40c1-1 2-2 4-2l30 0c29 0 42-18 42-54l0-30c0-33-13-48-42-48l-117 0-22 36 43 0c3 0 6 2 6 6 0 3-3 6-6 6l-133 0c-3 0-6-3-6-6 0-4 3-6 6-6l31 0 0-85-31 0c-3 0-6-2-6-6 0-3 3-6 6-6l350 0c3 0 6 3 6 6 0 4-3 6-6 6z m-271 138l-17 6 11 32 18-6z m57 193l9-3 8-3-6-18-17 7z m-13-160l-60 21 42 118 15-6c0 0 0 0 0 0l29-10c0 0 0 0 0 0l16-5z m142-171l-222 0 0 85 32 0 29-46c1-1 3-2 5-2l120 0c35 0 54 21 54 60l0 30c0 43-19 66-54 66l-27 0-43 43 2 5 116 0c30 0 55-24 55-54l0-132c0-30-25-55-55-55z"/>
<glyph glyph-name="scholarships" unicode="&#84;" d="M372 226c-43 0-78-35-78-78 0-43 35-78 78-78 43 0 78 35 78 78 0 43-35 78-78 78z m0-144c-36 0-66 30-66 66 0 37 30 66 66 66 37 0 66-29 66-66 0-36-29-66-66-66z m0 90c5 0 9-4 9-9 0-3 3-6 6-6 4 0 6 3 6 6 0 10-6 18-15 20l0 3c0 3-2 6-6 6-3 0-6-3-6-6l0-3c-9-2-15-10-15-20 0-11 10-21 21-21 5 0 9-4 9-9 0-5-4-9-9-9-5 0-9 4-9 9 0 3-3 6-6 6-3 0-6-3-6-6 0-12 10-21 21-21 12 0 21 9 21 21 0 12-9 21-21 21-5 0-9 4-9 9 0 5 4 9 9 9z m-130-79l-168 0 0 32c0 23 14 43 35 51l51 14 78-77c1-1 3-2 4-2 2 0 3 1 4 2 3 2 3 6 0 9l-72 72 28 8c15-9 30-15 40-15 24 0 78 30 82 77 12 3 18 17 18 30 0 7-1 14-5 18-2 5-6 8-11 9l0 63 92 16c3 0 5 3 5 6 0 3-2 5-5 6l-175 30c0 0-1 0-2 0l-174-30c-3-1-5-3-5-6 0-3 2-6 5-6l31-5 0-49-18-101c-1-2 0-4 1-5 1-2 3-2 5-2l42 0c2 0 3 0 4 2 2 1 2 3 2 5l-24 102 0 45 48-8 0-63c-5-1-8-4-11-8-3-5-5-12-5-19 0-13 6-27 18-30 2-22 15-40 30-53l-85-24c-26-9-43-34-43-62l0-38c0-3 2-6 6-6l174 0c4 0 6 3 6 6 0 3-2 6-6 6z m-149 157l12 66 15-66z m149 180l140-24-140-24-139 24z m-1-60c0-1 1-1 1-1 1 0 1 0 1 1l71 12 0-27c-6-5-30-21-72-21-42 0-66 16-72 21l0 27z m-69-101c0 4-2 6-6 6-8 0-12 10-12 19 0 5 1 9 3 12 2 3 4 4 7 4 3 0 6 2 6 6l0 24c12-7 36-18 72-18 36 0 60 11 72 18l0-24c0-4 3-6 6-6 3 0 6-1 7-4 2-3 3-7 3-12 0-9-4-19-12-19-3 0-6-2-6-6 0-42-50-70-70-70-8 0-22 5-35 14-1 1-1 1-1 1-18 12-34 31-34 55z m31 31c0 0 0 1 0 1 1 0 4 0 7 0l2 0 2 0c2 0 6 0 7 0 0 0 0 0 0-1 0-4 3-6 6-6 3 0 6 2 6 6 0 4-1 7-4 9-4 4-10 4-15 4l-2 0-2 0c-6 0-12 0-16-4-2-2-3-5-3-9 0-4 2-6 6-6 3 0 6 2 6 6z m54-6c4 0 6 2 6 6 0 0 0 1 0 1 2 0 5 0 7 0l3 0 2 0c2 0 6 0 7 0 0 0 0 0 0-1 0-4 2-6 6-6 3 0 6 2 6 6 0 4-1 7-4 9-4 4-10 4-16 4l-1 0-2 0c-6 0-12 0-16-4-2-2-4-5-4-9 0-4 3-6 6-6z"/>
<glyph glyph-name="twitter" unicode="&#85;" d="M512 415c-19-9-39-14-60-17 21 13 38 34 46 58-20-12-43-20-67-25-19 20-46 33-77 33-58 0-105-47-105-105 0-8 1-16 3-24-87 4-165 46-216 110-9-16-15-34-15-53 0-36 19-69 47-87-17 0-33 5-47 13 0-1 0-1 0-2 0-50 36-93 84-103-9-2-18-3-28-3-7 0-13 0-20 2 14-42 53-72 99-73-36-28-82-45-131-45-8 0-17 0-25 1 47-30 102-47 161-47 193 0 299 160 299 299 0 4 0 9 0 13 20 15 38 34 52 55z"/>
<glyph glyph-name="vimeo" unicode="&#86;" d="M437 478c-71 2-119-38-144-120 13 5 25 8 38 8 25 0 37-15 34-44-2-18-13-43-34-77-22-34-38-51-49-51-13 0-26 26-38 79-3 15-10 54-20 117-9 59-34 86-74 82-16-2-42-17-75-46-25-22-50-45-75-67l24-31c23 16 37 24 40 24 18 0 34-28 50-83 13-51 27-101 41-152 21-55 46-83 76-83 48 0 107 45 176 136 68 87 102 155 105 205 3 67-22 101-75 103z"/>
<glyph glyph-name="walter-date" unicode="&#87;" d="M388 133c0 9 1 16 5 23 3 4 4 9 6 13 2 2 3 4 5 7 3 4 6 8 9 12 2 2 4 5 5 8 1 5-1 9-6 11 0 1-1 1-2 1-4 0-8 1-12 1-4-1-7-1-11-2-2-1-5-2-7-3-4-1-7-3-11-5-5-2-10-4-15-4-4 1-8 4-9 8-1 6 0 11 4 16 3 2 4 5 6 7 3 3 5 5 8 7 3 3 7 4 10 6 5 2 10 4 14 9 2 2 4 5 6 7 5 5 9 9 14 14 3 4 6 7 9 10 3 3 5 7 7 10 1 1 2 3 3 5 2 4 4 9 7 13 1 2 3 4 3 7 0 1 0 3 1 4 2 4 3 8 6 12 2 4 7 4 12 3 5-2 6-6 7-11 1-2 1-5 1-8 1-3-1-7-2-10-3-5-4-11-6-16-2-4-4-9-8-12-2-3-4-6-6-8 0-1-1-3-2-4-2-2-3-6-6-9-4-3-7-8-10-12 0-1 0-3 0-5 3-6 10-8 16-8 2 0 4 1 6 2 6 4 11 9 15 15 3 4 5 7 9 10 3 2 5 5 7 7 4 3 7 6 11 8 6 3 11 4 16 5 4 0 8-4 9-8 0-3 0-5-2-8 0 0-1-1-1-2-1-2-2-5-5-6 0-1-1-1-1-2-2-2-3-5-5-7-3-3-5-5-7-7-1-1-2-3-3-4-1-3-3-7-5-10-2-6-5-11-10-15-2-2-5-4-7-6-3-3-5-6-7-9-1-1-3-2-4-3-3-5-6-9-10-13 0-1-1-1-2-2 0 0-1 0-1-1-2-2-4-4-6-7-2-3-5-7-8-10-2-3-3-6-5-8-2-3-3-5-5-8 0-1 0-2-1-3-3-6-5-11-9-16-3-3-6-5-10-5-6 1-8 2-9 8-1 3-1 6-1 8z m-374 47c-2 0-4 0-6 1-4 1-9 6-8 10 1 4 1 9 5 12 3 2 4 6 6 8 0 1 1 2 1 2 5 3 7 8 10 13 2 3 4 6 6 9 3 4 6 7 8 10 1 1 1 1 2 2 1 0 1 1 2 2 3 4 6 8 9 12 0 2 1 3 2 5 1 2 2 3 3 4 3 4 6 6 8 10 3 5 7 10 11 15 2 3 4 7 6 10 3 6 6 11 10 16 2 2 4 5 6 7 3 4 6 8 9 12 3 5 5 10 9 15 1 3 3 5 5 7 1 2 2 5 4 7 2 4 4 8 7 11 0 1 1 1 1 2 1 5 6 7 9 10 4 3 7 3 11 3 5 0 9-3 9-6 0-3 0-6-1-9-2-4-3-7-6-10-3-3-4-6-6-9-2-3-3-6-5-8-2-4-4-9-7-13 0-1-1-1-1-2-1-1-2-2-2-3-1-1-1-2-2-2-2-3-3-5-4-8-1-2-4-5-5-7-1-1-3-3-4-4-2-4-5-7-8-10-1-2-1-3-2-4-3-6-6-12-10-17-2-3-4-5-7-8-4-5-10-10-12-17 0-1-1-2-2-3-1-1-2-3-3-5 0 0 0-1 0-1-2-3-5-5-7-7 0-1-1-1-1-2 0-1 0-1-1-2-2-2-4-4-7-6 0-1 0-2-1-2-1-2-3-4-5-6-1-2-3-4-5-6-3-4-6-8-8-13-2-5-5-11-7-17-1-1-1-3-3-3 0 0 0-1-1-1-2-4-5-4-9-4-1 0-2 0-3 0z m329 166c-3 3-13 2-17 0-1-2-3-3-5-3-5-3-10-4-14-9 0 0-1 0-1-1-2-1-3-2-4-3-1 0-1-1-2-1-1-1-1-2-2-2-2-3-4-5-5-8-1 0-1 0-2 0-2-1-3-2-5-3-3-2-5-2-7 1-1 1-1 2-2 3-4 7-9 8-15 7-2 0-4 0-5 0-2-1-4-1-6-1-2-1-5-2-7-3-4 0-7-1-11-3-1-1-3-2-5-2-4-1-7-3-10-5-2-2-5-4-7-5-3-2-6-5-9-7 0-1-1-1-2-1-5-1-10 0-13 4-3 5-4 9-4 14 0 3 1 6 3 8 3 4 4 8 8 11 3 2 8 3 13 2 6-1 11-2 16 3 1 1 2 2 2 3 0 3 0 6 0 8 0 2-1 5-2 6-2 3-4 5-7 7-3 4-7 6-12 6-1 0-2 0-3 0-5 0-10 0-14-4 0 0-1 0-2-1-3-1-7-1-10-3-3-1-6-3-8-6-3-4-7-6-9-11-2-5-5-10-7-15-1 0-1-1-1-1 0-5 0-10 0-15 0-2 0-4 1-6 2-5 5-10 7-14 1-2 2-4 4-6 3-4 4-8 3-13 0-2-2-4-3-5-2-3-5-5-7-7-4-4-7-8-11-12 0-1 0-1-1-1-1-1-2-2-3-2-3-3-5-5-7-7-2-2-5-5-7-7-3-3-6-6-9-9-2-2-4-4-6-6-3-3-3-7-6-10-2-4-2-7-2-11 0-6 3-10 6-14 3-3 7-5 11-6 8-2 15-2 22 0 4 1 8 3 12 4 2 1 5 2 6 5 0 0 0 0 0 0 3 2 6 4 9 7 4 3 7 6 11 9 2 3 5 7 7 10 1 0 1 1 1 1 1 7 2 14 4 20 0 3 1 6 2 8 3 5 3 10 3 15 1 6 2 12 6 17 1 3 4 5 6 7 3 2 6 5 9 7 4 2 8 5 12 8 2 1 5 4 8 5 3 2 7 4 11 5 4 2 9 3 13 4 1 0 3 0 5 0 3-1 5-3 5-6 1-5-2-8-4-11-2-4-5-7-8-11-2-3-4-6-6-8-3-2-5-6-7-8-3-4-5-8-7-12-4-5-7-12-9-18-3-9-3-18-1-27 1-2 2-4 4-6 1-3 3-6 4-8 1-1 1-1 0-2 0-2-1-3-1-5-2-3-3-5-4-8-2-5 1-8 4-12 2-3 5-4 9-5 7 0 14-1 20 5 0 0 1 0 1 0 8 5 17 8 24 14 2 2 4 5 6 8 1 1 2 3 3 4 2 3 5 6 8 9 3 4 7 8 11 12 3 3 5 7 7 11 1 1 1 3 2 4 2 5 5 9 7 13 2 6 2 12 1 18 0 6-4 9-8 12-4 2-8 3-13 3-2 0-3-1-5 0-3 0-6 1-8 4-1 0-1 1-1 2 2 2 2 5 5 7 0 0 0 1 1 2 5 5 8 13 14 17 1 0 1 1 2 1 2 3 3 5 6 7 2 2 4 4 7 6 0 1 0 1 1 2 0 1 1 1 1 2 4 3 7 7 7 12 0 2 0 5-2 6z m-182-129c-2-4-5-7-8-10-2-2-4-3-6-4-4-1-6 0-9 3-1 3-1 5 0 8 3 6 7 10 11 15 3 3 7 4 11 7 1 1 3 0 4-1 1-2 1-4 1-6-1-5-1-9-4-12z m133 26c-2-3-4-6-7-9-2-3-4-5-6-7-2-2-4-4-6-6-2-3-4-5-6-7-5-3-10-1-10 5 0 1 0 2 0 4 0 0-1 0-1 0 1 4 2 8 3 13 1 2 2 4 4 6 2 4 5 7 8 10 2 2 4 5 6 7 3 3 9 5 12 2 2-1 4-4 5-7 2-4 1-7-2-11z"/>
<glyph glyph-name="walter-signature" unicode="&#88;" d="M436 268c2 0 3 0 5 0 1 1 3 1 5 1 0 0 1 0 1 0 1 0 2 1 2 1 2 0 2 1 1 3 0 0-1 0-2 0-1-1-2-1-3-1-1 1-2 0-4 0-2 0-3 0-5 1-1 0-1 0-2 0-4 0-8 0-12 0-4 0-9 0-14 0-2 0-5 0-8 0-1 0-2 0-4-1 0 0 0 0 0 0 0 1 0 1 0 2 1 0 2 1 3 1 1 1 1 2 2 3 2 1 3 2 3 4 1 1 1 2 0 2-1 1-2 1-4 0-1 0-2-1-2-1-2-2-4-4-6-5-2-2-4-3-6-5-1-1-2-2-3-3-2-2-3-4-5-5-2-2-4-4-7-5 0-1-1-1-1-1-1-1-2-2-2-2-2-1-3-2-5-3-2-1-3-2-5-4-2-1-5-2-7-4-1-1-2-2-4-2-2-1-4-2-6-4 0 0-1 0-1 1 1 1 2 3 3 4 1 1 1 2 1 3-1 1-2 1-3 0-1 0-3-1-4-2-1-2-3-3-4-4 0 0-1 0-1-1-2 0-4-1-6-2-1-1-2-1-3-1-1 0-1 1-1 2 0 1 0 2 1 3 0 1 0 1 1 2 1 2 1 4 1 6 0 1-1 2-2 2 0 0-1 0-1 0-2 0-4 0-5 0-2 0-3 0-4 1 0 0 1 0 1 1 1 1 2 3 4 5 1 2 3 3 5 4 1 0 2 1 3 1 2 1 5 2 7 3 2 1 3 1 5 2 1 1 2 2 3 2 1 0 2 1 3 2 0 0 1 0 1 0 1 1 2 1 3 1 4 3 8 4 12 7 0 1 0 1 0 1 1 1 2 1 4 2 0 0 0 0 0 1 1 1 2 2 1 4 0 0 1 0 1 0 0 1 0 2-1 3-2 2-4 3-7 3-1 0-3-1-5-1-2-1-5-2-7-3-1-1-2-1-3-2-1 0-2-1-3-2-1 0-2-1-3-2-1-1-2-2-4-3-1-2-3-4-5-6-1-1-2-2-3-2-1-2-2-4-4-5 0-1-1-2-3-3-1 0-3-1-4-1-4-1-7-2-11-3-2 0-5-1-7-1-2 0-4-1-6-1 0 0-1 0-1 0-2-2-3-3-5-4-1-1-2-1-3-2 0 0-1-1-1 0 0 1 1 1 2 2 1 1 2 3 3 5 1 0 2 1 3 2 0 0 0 0 1 1 0 0 0 1 1 1 0 2 1 3 2 4 1 1 2 2 3 3 1 1 1 2 1 3 1 0 1 1 0 2-1 0-2 0-2 0-2 0-3-1-5-2-1-1-1-1-2-2-1 0-3-1-4-1-1-1-2-1-3-2-1-1-2-2-4-2-1-1-2-2-3-3-2 0-3-1-4-2-2-1-3-1-5-3 0 0 0 0-1 0 0 0 0 0 0 0 0 0 0 1 0 1 1 1 2 3 3 4 1 1 2 2 2 3 1 1 2 2 3 3 0 0 0 1 0 1 0 0 0 1 0 1 2 2 4 4 4 6 0 0 1 1 1 1 0 0 0 0 0 1 1 1 2 3 2 4 0 1 0 1 0 2 0 0 0 1 0 2 1 2 0 4-2 6-1-1-3-1-5-1 0-1-1-1-1-1-1 0-2-1-3-1-2-1-4-2-6-3 0 0-1-1-2-1-2 0-3-2-5-2-2-1-4-3-6-4-1-1-2-3-1-5 1-2 3-3 4-2 0 1 0 2-1 3 1 1 1 1 2 2 1 1 2 2 3 2 3 2 6 3 8 4 1 1 3 2 4 2 1 1 3 1 4 2 1 0 2-1 2-2 0-1 0-3 0-5-2-3-3-6-5-9-1-2-2-4-3-6-2-3-4-5-6-8-1-2-3-3-5-5-1-2-3-3-5-4-2-2-5-4-8-6-2-2-5-3-7-5-2-1-4-3-6-5-1-1-1-2 0-3 0 0 1-1 2-1 1 0 2 1 3 1 2 2 4 3 6 4 1 0 2 1 3 2 0 0 0 0 0 0 2 1 3 2 4 3 1 1 2 2 3 3 1 1 2 2 4 3 0 2 1 3 2 3 1 1 1 1 2 2 2 2 4 3 7 5 0 0 1 0 1 1 2 0 3 1 4 2 2 1 4 2 6 3 0 0 1 1 1 1 1 0 2 1 3 1 1 1 2 1 3 2 1 1 2 1 3 2 1 0 1 0 2 1 0-1 0-2-1-2-1-2-2-4-4-5 0 0 0 0 0 0-1-1-1-2-2-3-1-1-2-2-2-2-1-2-2-3-3-4-1 0-1 0-1 0-1-2-2-3-3-4-2-4-6-6-9-9 0 0 0 0 0-1-1 0-3-1-4-2-1-2-3-3-4-4-2-1-3-2-4-3-1 0-1-1 0-2 0 0 0-1 1-1 1 0 2 0 3 1 1 0 2 1 3 2 1 1 2 2 3 3 1 0 1 0 1 1 1 1 2 2 4 3 1 0 2 1 3 2 1 1 3 2 4 4 1 0 1 1 2 1 2 1 3 2 5 3 0 1 1 1 1 1 1 1 2 2 3 2 3 2 5 4 8 5 2 0 4 1 6 1 2 0 3 1 5 1 1 0 2 0 3 1 2 0 4 1 6 1 1 0 2 0 2 0 0-1 0-1 0-1-1-1-2-3-4-4 0-1-1-2-2-2-1-2-2-2-2-4-1-1-2-2-3-3-1 0-2-1-3-2 0-1 0-1 0-1-1-1-3-2-4-3-1-1-2-2-3-3-1-1-1-2 0-3 0-1 1-1 3-1 0 1 1 1 1 2 1 1 2 2 3 3 1 0 1 0 1 0 1 1 2 2 2 3 3 2 5 5 8 6 3 1 5 1 7 2 1 0 2 0 3-1 0 0 0 0 0 0-1-2-2-5-3-7 0 0 0-1 0-2 0-1 0-2 1-4 1-1 3-1 4-2 0 0 1 0 1 0 1 1 2 1 3 1 0 0 1 0 1 0 2 1 4 2 5 3 1 0 2 0 2-1 1 0 1-1 2-1 1 0 1-1 2-1 0 0 0 0 0 0 0-1 0-2 0-2 2-1 3 0 3 2 1 0 1 1 1 1 1 1 3 2 4 2 3 2 6 3 8 5 0 1 0 1 1 1 1 1 3 2 5 3 1 1 2 1 2 2 1 1 2 1 3 2 1 0 1 1 2 1 0 0 0 0 0-1 0 0 0 0-1-1-1-1-2-2-3-4-1-1-2-3-4-5 0-1 0-1 0-1 0-1 1-3 2-3 2 0 2 0 3 2 0 0 0 1 1 1 0 0 0 0 0 0 0 0 1 1 2 1 1 1 2 2 3 3 2 0 4 1 6 2 2 1 5 2 8 3 0 0 0 0 1 0 1 0 1 0 2 1 1 0 1 0 1 0 0-1 0-2-1-3-3-1-4-3-5-5 0-1 0-2 0-2 1-2 2-2 3-2 1-1 1 0 2 0 1 0 1 1 2 1 3 2 5 3 8 4 1 1 1 2 3 2 0-1 0-1 0-1 0-1 0-2 0-3 0-1 1-3 2-3 1 0 3 0 4 1 1 0 3 1 5 1 1 1 2 0 2 0 1-2 3-3 4-3 2-1 4-1 6-1 1 0 2 0 4 0 0 0 0 0 1 0 0 1 0 1 0 2 1 1 0 2-1 2-1 0-2 0-3 0-2 0-4 1-5 2 0 0 0 1 0 1 1 1 0 3-2 4-1 0-2 0-2 0-1 0-1-1-2-1-2-1-4-2-5-2-1-1-1-1-2 0 1 1 1 1 1 2 1 0 1 1 1 1 0 1 1 1 1 1 1 1 1 2 0 3-1 1-3 2-4 1-2-1-4-2-6-4 0 0 0 0-1 0 0 0-1 0-1-1-1-1-2-1-4-2 0 0-1 0-1 0 0 0 0 0 0 1 3 2 6 6 9 8 1 2 0 3-1 3-1 1-2 1-2 0-2 0-4-1-6-2-1-1-3-1-5-2-2 0-3-1-5-1-3-1-6-3-9-4-1 0-2 0-3 0 0 0 0 0 0 1 1 0 2 1 2 2 1 1 1 2 2 2 1 0 1 1 1 1 1 1 2 2 4 4 0 0 0 0 0 0 0 0 1 1 1 1 1 0 1 1 1 1 2 2 3 3 5 5 1 1 2 2 3 3 1 0 1 0 2 0 0 0 1-1 1-1 0 0 0 0 0 0 1 0 1 0 1 0 1 1 2 2 4 2 0 0 0 0 0 0 2 1 4 1 6 1 2 0 4 0 5 0 2 0 4 0 6-1 1 0 2 0 3 0 4 0 8 0 12 0 1 0 2 0 3 0 1 0 2 0 2 0 1-1 2 0 2-1z m-108 4c1 1 2 2 3 3 0 0 1 0 1 0 2 3 4 5 7 7 0 0 0 1 1 1 0 1 1 1 1 2 1 0 2 1 2 1 1 1 2 2 3 2 4 2 8 4 12 3 1 0 2 0 3-1 0-1-1-2-2-3-1-1-2-2-4-3 0 0 0 0-1 0 0-1-1-1-1-2-2-2-5-3-7-4-3-1-5-2-8-3 0 0 0-1-1-1-1 0-3-1-4-2-1 0-2-1-3-1-1 0-2-1-3-1 0 0 0 0-1 0 0 1 1 1 2 2z m-232-7c2 2 4 3 5 4 2 1 4 2 6 3 2 1 3 1 5 2 3 1 5 3 8 5 1 0 2 1 4 2 1 0 3 1 4 1 0 0 1 0 1 0 2 1 4 2 7 3 2 1 4 2 6 2 2 1 5 1 8 1 3 0 4-1 3-4 0-1 1-2 2-2 1 0 1 1 2 2 0 1 0 2 0 3 0 2-1 4-3 6 0 0 0 0 0 0-2 1-3 2-5 2-3 0-5-1-8-2-2 0-4-2-6-2 0 0 0 0-1 0-1-1-3-1-5-2-3-2-6-3-9-5-5-3-10-5-14-8-2-1-5-2-7-3-2-2-4-3-6-5-1-1-2-1-3-2 0 0 0 0-1 0 1 1 1 1 1 2 1 0 1 1 2 2 2 2 4 5 5 8 2 2 4 4 5 7 0 1 1 2 0 3 0 2-1 2-3 2-1-1-3-1-4-2-3-2-5-3-8-4-2-2-4-3-6-4-3-1-5-3-8-4 0 0-1-1-1-1-2-1-4-3-5-4-1 0-1 0-2 0 1 1 1 1 2 2 1 2 2 3 3 6 0 0 0 0 0 0 0 1 0 2 0 4 0 1-2 2-3 1-2-1-3-1-5-2-1-1-1-1-2-1-2-1-4-3-6-4-2-1-3-2-5-3-3-3-7-5-10-7-1-1-1-1-2-2-2-1-4-3-5-4-2-2-3-3-5-4-2-2-3-4-5-5 0-1-1-1-1-2-1-2-2-5-3-7 0-1 0-1 1-2 0 0 1 0 1 1 1 0 1 1 2 1 0 2 1 3 2 5 0 1 1 2 1 2 1 1 1 1 2 2 3 3 5 6 8 8 2 0 3 1 4 2 2 1 4 2 5 4 0 0 0 0 0 0 2 1 3 2 4 3 2 1 3 2 5 3 1 1 2 1 3 1 0 1 1 1 1 1 2 1 3 2 5 3 1 0 1 1 2 1 0 0 1 1 1 0 0 0 0-1 0-1-1-1-1-2-2-3-1-3-3-5-5-8-1 0-1-1-2-1-1-1-1-1-2-2 0 0-1-1-1-1-2-1-3-2-4-2-1-1-2-2-4-3-2-2-4-3-6-4-1-1-2-2-3-3-2-1-4-2-5-4-3-2-6-4-9-6 0-1-1-1-2-2-2-2-4-4-6-6-2-1-4-3-6-5-1-1-2-1-2-1-1-2-2-3-4-4-1-1-2-2-2-3 0-2 1-3 2-3 1 0 2 1 3 2 1 0 1 1 2 1 1 1 2 1 2 2 1 1 2 1 2 1 1 2 2 2 3 3 1 1 1 2 2 2 2 2 4 4 6 4 1 0 1 0 1 1 1 1 2 2 3 2 1 0 1 1 1 1 1 1 1 1 2 1 1 1 2 2 3 3 3 2 5 4 8 6 1 1 2 2 3 3 2 2 4 3 6 5 0 0 2 1 2 2 1 1 2 2 3 2 1 1 2 2 3 3 1 1 2 2 4 3 1 1 2 2 3 3 2 1 4 2 6 4 3 1 5 2 7 4 2 1 3 2 5 3 1 1 2 2 3 2 1 0 1 0 1 0 1 1 3 1 4 2 2 0 3 1 4 2 1 0 1 0 2-1-1 0-1-1-1-1-1-1-2-3-3-4-1-1-1-2-2-3-1-1-2-3-3-4-2-2-4-4-6-6-1-2-3-4-4-6-2-2-3-3-4-5-1 0-2-1-3-2-3-3-6-5-9-8-2-2-4-3-6-5 0 0-1-1-1-1 0 0-1-1-1-1-1-1-3-2-4-4-1-1-2-2-4-3 0 0-1-1-1-2-2-1-3-3-4-4-2-1-2-2 0-3 0 0 0-1 0-1 1 0 2 0 2 1 1 0 2 1 2 1 2 2 4 3 6 5 4 3 8 7 12 11 0 0 1 1 1 1 2 2 4 3 5 5 1 1 1 1 1 1 1 1 2 2 3 3 2 1 2 2 4 3 0 0 0 0 0 0 1 1 3 2 4 3 1 1 2 2 3 3 1 1 1 1 2 2 3 2 6 4 10 6 0 1 1 1 1 1z m133-7c1 2 0 3-1 3-1 0-1 0-2 0-2 1-5 1-7 1-2 1-4 1-6 1-1 0-2 1-3 1-2 0-4 0-6 0 0 0 0 0 0 0-1 0-2 0-3 0-1 0-1 0-2 0 0 1 0 1 1 1 1 2 3 2 3 4 0 0 1 0 1 1 1 2 1 3-1 4-1 1-1 1-3 1-1-1-2-2-3-2-1-1-2-1-3-2-2-2-4-4-6-6-1-1-2-2-3-3-1-2-3-4-4-5-1-1-1-2-2-3-1-1-3-2-5-3-1 0-2-1-4-1-3-2-6-2-10-2-1 0-2 1-3 2 0 0 0 1 0 1 1 1 2 1 3 2 1 0 3 1 4 2 2 1 4 3 6 3 0 1 1 1 2 1 1 1 2 2 4 3 2 2 4 3 6 5 0 0 0 0 0 0 1 1 1 1 2 2 1 0 1 1 2 2 1 1 1 2 1 3 0 1 0 2 0 3-1 1-2 1-3 1-1 1-2 1-2 1-1 0-2 0-2 0-1 0-2 0-3-1-1 0-2 0-3 0-1 0-2-1-3-1-1 0-2-1-3-1-2-1-3-2-4-3-1-1-2-2-3-3-2-3-4-5-5-8-1-2-2-4-2-6-1-2-2-4-5-5-3-2-6-3-9-4-1-1-3-1-4-1-1-1-3-2-5-1-1 0-1 0-2 0-1 2-1 5 1 7 1 1 2 1 4 2 1 1 3 3 4 4 1 1 0 3-1 3-1 0-2 0-3-1-2 0-3-1-5-2-1-1-3-2-3-3-1-1-2-2-2-2 0-1-1-1-1-1-1 1-1 2-1 3 0 2-1 3-2 4 0 0 0 1-1 1-2 1-4 1-6 0-1 0-1 0-1 0-3-1-7-2-9-4-1 0-1 0-1 0-2-1-4-3-5-4-1-1-1-2-2-3-1-1-1-3-2-4 0-2 1-4 2-5 0 0 0 0 0 0 3-1 5-2 7-1 2 0 4 1 6 2 1 0 2 0 2 0 3 1 5 2 7 4 1 0 2 1 4 1 0 0 1-1 1-2 2-2 4-4 8-4 0 1 0 0 0 0 2 0 3 0 5 1 0 0 0 0 0 0 1 1 2 1 3 1 2 1 4 2 6 3 2 1 4 1 6 2 1 1 3 0 4-1 0 0 0-1 1-1 2-1 4-1 7-1 1 0 3 0 4 0 0 0 1 0 1 0 1 1 2 1 3 1 0 0 1 0 2 1 1 0 1 0 2 0 0 0 0-1 0-1-1-1-2-3-2-5-1-1 0-2 1-2 1-1 3-1 4-1 2 0 3 1 4 1 3 1 5 1 7 1 1 1 2 1 1 3 0 0-1 1-2 1-1 0-2 0-2 0-1-1-2-1-3-1-1 0-3-1-4-1 0 0-1 1-1 1 0 2 1 4 2 5 1 0 1 0 1 0 0 1 1 2 2 3 0 1 0 1 1 1 1 1 3 2 4 4 2 1 4 2 5 3 1 2 1 1 3 1 1-1 2-1 3 0 0 0 1 0 1 0 1 1 2 1 3 1 0 0 1-1 1-1 1 0 3 0 4 0 4 0 7 0 10 0 1 0 1 0 1 0 3 0 6-1 9-1 1 0 2 0 2 0z m-69 1c0 1 0 1 0 1 0 2 1 4 2 5 1 1 1 2 2 3 1 2 3 4 6 5 0 0 0 0 1 0 0 0 0 0 1 0 3 2 6 2 8 2 1 0 2-1 3-1 0-1 0-1 0-1-2-3-4-4-6-6-2-1-3-2-4-3-2-1-4-3-6-4-3-1-6-3-9-5 0 1 0 1-1 1 1 1 2 2 3 3z m-44-11c-1 0-1-1-2-1-1 0-2-1-3-1-2-1-3-1-5-2 0 0-1 0-2-1-1 0-2 0-3 0 0 0-1 0-1 1-1 2-1 4 1 6 2 2 3 4 6 5 2 1 4 1 6 2 1 0 2 0 4 0 1-1 2-2 2-3 0-1 1-2 1-4-1-1-3-1-4-2z m395-13c-1 0-3 0-4 0 0 0-1 0-1 0-2-1-3-1-5-1-2 0-4 0-6 0-1 0-2 1-3 1-1 0-1 0-1 0-2 2-2 4 0 5 0 1 1 1 1 1 0 1 0 2 0 2 0 1 0 2-1 2-2 0-4 0-5-1-1-1-2-1-4-2 0 0-1 0-1 0 0 0 0 0 0 0 0 0 0 1 1 1 1 1 2 2 2 3 1 1 2 2 3 3 1 1 1 2 0 3-1 0-3 1-4 0-1-1-2-1-3-2-1-1-2-1-3-1-1-1-2-2-3-2-2-1-4-2-6-3-1-1-3-1-4-2-1 0-3-1-4-1-1-1-2-1-3-1 0 0-1 0-1 0 0 1 0 2 0 2 1 0 1 1 1 1 2 1 3 2 4 4 0 0 1 0 1 0 1 0 1 1 2 1 1 1 1 1 1 2 0 1-2 2-3 2-1 0-3-1-4-2-1 0-1 0-2-1-1 1-1 1-1 2 0 1-1 1-1 1-1 1-2 1-3 1-2 0-4 0-6-1 0 0-1 0-2 0 0 0-1-1-2-1-1 0-1 0-2-1 0 0-1-1-1-1-2-1-4-3-5-5-1-2 0-3 1-4 0-1 1-1 1-2 1 0 2 0 2 0 1-1 1-1 2-1 1 0 3 0 4 0 1 0 2 0 3 1 0 0 1 1 2 1 0 0 1 0 1 0 0-1 0-1 0-1 1-1 1-2 2-2 1 0 1 0 2-1 2 0 3 0 5 0 0 0 0 0 0 0 2 1 3 2 5 2 1 1 2 1 3 2 2 1 5 2 7 3 0 1 0 0 0 0 0 0 0-1 0-2-1-1 0-3 1-3 1 0 2-1 3 0 1 0 3 0 4 1 0 0 1 0 2 0 0-1 0-3 1-4 2-1 3-3 6-3 3-1 6-1 9-1 3 0 5 0 7 0 2 0 3 1 5 2 0 0 0 1 1 1 0 1 0 2-1 2z m-61 9c-1-1-3-2-5-2-2-1-3-1-5-1 0 0-1 1-1 1 0 1 0 2 0 2 1 1 1 1 2 2 1 1 3 2 4 3 2 0 3 0 5 0 0 0 1 0 1 0 0-1 0-1 0-2 1 0 1 0 2 0 0-2-2-3-3-3z m-90 29c-1-1-2-3-3-4 0-1 0-2 0-3 1 0 2 0 3 1 1 2 4 4 7 5 1 0 1 0 2 1 2 0 2 1 2 2 0 2-1 2-2 2-4 1-7-1-9-4z"/>
<glyph glyph-name="arrow-long-left" unicode="&#89;" d="M1 253c-1 2-1 4 0 6 0 1 1 2 2 3l102 102c3 4 9 4 12 0 3-3 3-8 0-12l-88-87 474 0c5 0 9-4 9-9 0-5-4-9-9-9l-474 0 88-87c3-4 3-9 0-12-2-2-4-3-6-3-2 0-4 1-6 3l-102 102c-1 1-2 2-2 3z"/>
<glyph glyph-name="youtube" unicode="&#90;" d="M314 157l0-61c0-12-4-19-11-19-5 0-9 2-13 6l0 86c4 5 8 7 13 7 7 0 11-7 11-19z m97-1l0-13-26 0 0 13c0 13 4 20 13 20 8 0 13-7 13-20z m-276 63l30 0 0 26-89 0 0-26 30 0 0-163 29 0z m82-163l25 0 0 141-25 0 0-108c-6-8-11-12-16-12-4 0-6 2-6 6-1 1-1 4-1 10l0 104-25 0 0-112c0-9 1-16 2-20 2-7 8-11 17-11 9 0 19 6 29 17z m122 42l0 57c0 13 0 23-2 28-3 11-10 16-20 16-10 0-19-5-27-16l0 62-25 0 0-189 25 0 0 14c9-11 17-16 27-16 10 0 17 5 20 16 2 5 2 14 2 28z m97 3l0 4-26 0c0-10 0-16-1-18-1-6-5-10-11-10-9 0-13 7-13 20l0 25 51 0 0 29c0 15-3 26-8 33-7 10-17 15-30 15-13 0-23-5-31-15-5-7-8-18-8-33l0-49c0-15 3-26 9-33 7-10 17-15 31-15 13 0 24 5 30 15 4 5 6 10 6 16 1 1 1 7 1 16z m-174 261l0 60c0 13-4 20-12 20-8 0-12-7-12-20l0-60c0-13 4-20 12-20 8 0 12 7 12 20z m206-215c0-44-3-77-8-100-2-11-8-20-16-28-9-7-18-12-29-13-35-4-88-6-159-6-71 0-124 2-159 6-11 1-20 6-29 13-8 8-14 17-16 28-5 22-8 55-8 100 0 45 3 78 8 100 2 12 8 21 16 29 9 7 18 12 30 13 35 4 87 6 158 6 71 0 124-2 159-6 11-1 20-6 29-13 8-8 14-17 16-29 5-21 8-54 8-100z m-285 365l29 0-35-114 0-77-28 0 0 77c-3 14-9 34-18 61-7 19-13 37-18 53l30 0 20-75z m105-95l0-50c0-16-2-27-8-34-7-10-17-14-30-14-13 0-23 4-30 14-5 7-8 19-8 34l0 50c0 15 3 26 8 33 7 10 17 15 30 15 13 0 23-5 30-15 6-7 8-18 8-33z m96 46l0-142-26 0 0 15c-10-12-20-17-29-17-9 0-15 3-17 10-2 5-3 12-3 22l0 112 26 0 0-105c0-6 1-9 1-10 0-4 2-6 6-6 5 0 10 4 16 12l0 109z"/>
<glyph glyph-name="filter-all" unicode="&#116;" d="M323 512l-134 0c-6 0-11-4-11-11l0-134c0-6 5-11 11-11l134 0c6 0 11 5 11 11l0 134c0 7-5 11-11 11z m-178 0l-134 0c-7 0-11-4-11-11l0-134c0-6 4-11 11-11l134 0c6 0 11 5 11 11l0 134c0 7-5 11-11 11z m356 0l-134 0c-6 0-11-4-11-11l0-134c0-6 5-11 11-11l134 0c7 0 11 5 11 11l0 134c0 7-4 11-11 11z m-178-178l-134 0c-6 0-11-5-11-11l0-134c0-6 5-11 11-11l134 0c6 0 11 5 11 11l0 134c0 6-5 11-11 11z m-178 0l-134 0c-7 0-11-5-11-11l0-134c0-6 4-11 11-11l134 0c6 0 11 5 11 11l0 134c0 6-5 11-11 11z m356 0l-134 0c-6 0-11-5-11-11l0-134c0-6 5-11 11-11l134 0c7 0 11 5 11 11l0 134c0 6-4 11-11 11z m-178-178l-134 0c-6 0-11-5-11-11l0-134c0-7 5-11 11-11l134 0c6 0 11 4 11 11l0 134c0 6-5 11-11 11z m-178 0l-134 0c-7 0-11-5-11-11l0-134c0-7 4-11 11-11l134 0c6 0 11 4 11 11l0 134c0 6-5 11-11 11z"/>
<glyph glyph-name="filter-apps" unicode="&#118;" d="M352 512l-192 0c-30 0-53-23-53-53l0-406c0-30 23-53 53-53l192 0c30 0 53 23 53 53l0 406c0 30-23 53-53 53z m-149-43l106 0c7 0 11-4 11-10 0-7-4-11-11-11l-106 0c-7 0-11 4-11 11 0 6 4 10 11 10z m53-437c-13 0-21 9-21 21 0 13 8 22 21 22 13 0 21-9 21-22 0-12-8-21-21-21z m128 75l-256 0 0 298 256 0z"/>
<glyph glyph-name="filter-articles" unicode="&#119;" d="M492 407c0 5-4 10-11 10l-450 0c-4 0-11-5-11-10l-17-218c0-3 0-7 3-10 2-2 4-2 7-2l482 0c2 0 4 0 7 2 2 3 2 5 2 10z m-121-142c-16-44-58-74-114-81-53 7-95 37-114 81l-2 7 70 68c-3 4-5 11-5 18 0 28 23 52 51 52 12 0 26-5 35-14l2 0c14-17 17-40 10-56l70-68z m-88 77c7 12 7 26-3 40-7 4-16 7-21 7-16 0-30-14-30-31 0-7 3-11 5-16l2-7-72-70c16-35 49-56 93-63 44 7 77 28 93 63l-72 70z m-256-265c9-44 53-77 102-77l256 0c49 0 93 35 103 77l18 86-498 0z m398 70l21 0 0-21-21 0z m-26-45l21 0 0-21-21 0z m-25 45l20 0 0-21-20 0z m0-86l20 0 0-21-20 0z m-26 41l21 0 0-21-21 0z m-26 45l21 0 0-21-21 0z m0-86l21 0 0-21-21 0z m-25 41l21 0 0-21-21 0z m-26 45l21 0 0-21-21 0z m0-86l21 0 0-21-21 0z m-25 41l20 0 0-21-20 0z m-26 45l21 0 0-21-21 0z m0-86l21 0 0-21-21 0z m-26 41l21 0 0-21-21 0z m-25 45l21 0 0-21-21 0z m0-86l21 0 0-21-21 0z m-26 41l23 0 0-21-23 0z m-25 45l20 0 0-21-20 0z m0-86l20 0 0-21-20 0z m-26 41l21 0 0-21-21 0z m-26 45l21 0 0-21-21 0z m-46 284l472 0 0 11 10 0 0 21-10 0 0 16c0 19-14 33-35 33l-402 0c-19 0-35-14-35-33l0-16-10 0 0-21 10 0z"/>
<glyph glyph-name="filter-books" unicode="&#120;" d="M0 464l0-352c0-6 4-11 11-11 145 0 234-36 234-64l0 389c-42 32-140 49-234 49-7 0-11-5-11-11z m64-85c55-5 107-13 141-28 6-2 8-9 6-13 0-4-4-6-8-6-2 0-2 0-5 0-34 13-81 21-134 25-6 0-11 7-11 11 0 6 5 11 11 11z m0-64c55-5 107-13 141-28 6-2 8-9 6-13 0-4-4-6-8-6-2 0-2 0-5 0-34 13-81 21-134 25-6 0-11 7-11 11 0 6 5 11 11 11z m0-64c55-5 107-13 141-28 6-2 8-9 6-13-2-4-6-6-10-6-3 0-3 0-5 0-34 13-83 21-136 25-7 0-11 7-11 11 4 6 9 11 15 11z m0-64c55-5 107-13 141-28 6-2 8-9 6-13-2-4-6-6-10-6-3 0-3 0-5 0-34 13-83 21-136 25-7 0-11 7-11 11 4 6 9 11 15 11z m437 288c-94 0-192-17-234-49l0-389c0 28 89 64 234 64 7 0 11 5 11 11l0 352c0 6-4 11-11 11z m-53-310c-53-4-102-12-137-25-2 0-2 0-4 0-4 0-8 2-10 6-3 7 0 11 6 13 36 13 85 23 141 28 6 0 10-5 10-11 5-4 0-11-6-11z m0 64c-53-4-102-12-137-25-2 0-2 0-4 0-4 0-8 2-10 6-3 7 0 11 6 13 36 13 85 23 141 28 6 0 10-5 10-11 5-4 0-11-6-11z m0 64c-53-4-102-12-137-25-2 0-2 0-4 0-4 0-8 2-10 6-3 7 0 11 6 13 36 13 85 23 141 28 6 0 10-5 10-11 5-4 0-11-6-11z m0 64c-53-4-102-12-137-25-2 0-2 0-4 0-4 0-8 2-10 6-3 7 0 11 6 13 36 13 85 23 141 28 6 0 10-5 10-11 5-4 0-11-6-11z"/>
<glyph glyph-name="filter-clothes" unicode="&#121;" d="M510 339l-85 86c-22 21-52 34-84 34l-168 0c-32 0-62-13-83-34l-86-86c-4-4-4-13-2-17l64-64c4-4 11-4 15 0l34 34 0-230c2-4 7-9 13-9l256 0c6 0 11 5 11 11l0 230 34-34c4-4 10-4 15 0l64 64c2 0 4 5 4 7 0 2-2 6-2 8z m-254 56c-26 0-47 19-51 42l104 0c-6-23-27-42-53-42z"/>
<glyph glyph-name="filter-external-link" unicode="&#122;" d="M469 96c0-30-23-53-53-53l-320 0c-30 0-53 23-53 53l0 320c0 30 23 53 53 53l139 0 0 43-139 0c-53 0-96-43-96-96l0-320c0-53 43-96 96-96l320 0c53 0 96 43 96 96l0 139-43 0z m43 399c0 0 0 2 0 0 0 2 0 4-2 4 0 0 0 2-2 2 0 0 0 2 0 2-2 3-5 5-7 7 0 0 0 0-2 0 0 0-2 0-2 2 0 0-2 0-2 0 0 0-2 0-2 0-2 0-2 0-4 0l-150 0c-13 0-21-9-21-21 0-13 8-22 21-22l98 0-239-241c-8-8-8-21 0-30 5-4 9-6 15-6 7 0 11 2 15 6l241 241 0-98c0-12 9-21 22-21 12 0 21 9 21 21l0 150c0 2 0 2 0 4z"/>
<glyph glyph-name="filter-games" unicode="&#65;" d="M480 491l-256 0c-17 0-32-15-32-32l0-96 96 0c30 0 53-24 53-54l0-138 139 0c17 0 32 15 32 32l0 256c0 17-15 32-32 32z m-181-107c-13 0-22 9-22 21 0 13 9 22 22 22 12 0 21-9 21-22 0-12-9-21-21-21z m106-149c-12 0-21 8-21 21 0 13 9 21 21 21 13 0 22-8 22-21 0-13-9-21-22-21z m0 149c-12 0-21 9-21 21 0 13 9 22 21 22 13 0 22-9 22-22 0-12-9-21-22-21z m-117-43l-256 0c-17 0-32-15-32-32l0-256c0-17 15-32 32-32l256 0c17 0 32 15 32 32l0 256c0 17-15 32-32 32z m-203-234c-12 0-21 8-21 21 0 13 9 21 21 21 13 0 22-8 22-21 0-13-9-21-22-21z m0 106c-12 0-21 9-21 22 0 12 9 21 21 21 13 0 22-9 22-21 0-13-9-22-22-22z m75-106c-13 0-21 8-21 21 0 13 8 21 21 21 13 0 21-8 21-21 0-13-8-21-21-21z m0 106c-13 0-21 9-21 22 0 12 8 21 21 21 13 0 21-9 21-21 0-13-8-22-21-22z m75-106c-13 0-22 8-22 21 0 13 9 21 22 21 12 0 21-8 21-21 0-13-9-21-21-21z m0 106c-13 0-22 9-22 22 0 12 9 21 22 21 12 0 21-9 21-21 0-13-9-22-21-22z"/>
<glyph glyph-name="filter-videos" unicode="&#66;" d="M501 235c-6 4-15 4-23 2l-94-41 0 39c0 17-15 32-32 32l-299 0c-17 0-32-15-32-32l0-171c0-17 15-32 32-32l299 0c17 0 32 15 32 32l0 38 94-38c4-2 8-2 11-2 4 0 8 2 12 4 7 4 11 13 11 21l0 128c0 7-4 15-11 20z m-192-54l-213 0c-6 0-11 5-11 11 0 6 5 11 11 11l213 0c7 0 11-5 11-11 0-6-4-11-11-11z m-117 203c0-53-43-96-96-96-53 0-96 43-96 96 0 53 43 96 96 96 53 0 96-43 96-96z m149-32c0-35-28-64-64-64-35 0-64 29-64 64 0 35 29 64 64 64 36 0 64-29 64-64z"/>
<glyph glyph-name="close" unicode="&#67;" d="M512 471l-41 41-215-215-215 215-41-41 215-215-215-215 41-41 215 215 215-215 41 41-215 215z"/>
</font>
</defs>
</svg>
