<?xml version="1.0" standalone="no"?>
<!DOCTYPE svg PUBLIC "-//W3C//DTD SVG 20010904//EN"
 "http://www.w3.org/TR/2001/REC-SVG-20010904/DTD/svg10.dtd">
<svg version="1.0" xmlns="http://www.w3.org/2000/svg"
 width="260.000000pt" height="260.000000pt" viewBox="0 0 260.000000 260.000000"
 preserveAspectRatio="xMidYMid meet">
<metadata>
Created by potrace 1.11, written by Peter Selinger 2001-2013
</metadata>
<g transform="translate(0.000000,260.000000) scale(0.100000,-0.100000)"
fill="#000000" stroke="none">
<path d="M1100 2556 c-113 -21 -191 -43 -279 -80 -412 -174 -696 -529 -773
-966 -19 -113 -16 -357 6 -455 94 -415 334 -723 703 -902 168 -81 304 -113
513 -120 144 -4 178 -2 270 17 133 27 205 51 305 101 457 229 725 652 725
1143 0 599 -390 1096 -972 1242 -128 32 -376 42 -498 20z m125 -36 c4 -6 13
-7 24 -1 20 11 101 12 101 2 0 -4 18 -5 40 -3 24 3 40 0 41 -7 1 -6 3 -15 4
-21 1 -5 3 -13 4 -16 0 -4 8 -1 17 7 14 11 14 13 0 21 -26 15 -18 29 12 22 93
-20 128 -29 137 -35 9 -6 45 -16 87 -24 10 -2 33 -11 52 -20 20 -10 47 -18 60
-19 13 0 22 -4 20 -8 -2 -3 9 -12 25 -19 16 -7 28 -16 26 -20 -3 -3 7 -4 20
-1 15 2 25 0 25 -7 0 -6 -8 -11 -17 -11 -15 0 -15 -2 -4 -9 10 -7 18 -5 26 6
10 13 12 13 24 -1 8 -9 18 -16 23 -16 5 0 14 -5 21 -10 7 -6 41 -32 77 -58 37
-26 95 -78 130 -117 35 -38 67 -72 70 -75 26 -22 129 -187 165 -265 45 -96 80
-209 71 -224 -3 -4 3 -37 13 -72 18 -64 26 -146 23 -229 -2 -39 -8 -85 -12
-85 0 0 -2 -34 -4 -76 -2 -42 -8 -91 -14 -110 -6 -19 -20 -65 -32 -103 -19
-62 -36 -103 -67 -161 -6 -11 -17 -33 -24 -50 -26 -58 -99 -165 -113 -165 -7
0 -16 -10 -20 -22 -16 -67 -236 -247 -403 -331 -61 -31 -280 -103 -353 -116
-91 -16 -329 -14 -432 4 -108 19 -224 51 -233 65 -3 6 -16 10 -28 10 -12 0
-38 10 -57 21 -19 12 -60 35 -90 51 -52 28 -135 87 -189 132 -70 59 -162 164
-168 190 -3 16 -14 31 -25 33 -10 3 -18 10 -18 15 0 5 -12 25 -26 43 -14 19
-23 39 -19 45 3 5 0 10 -8 10 -19 0 -60 92 -45 101 6 4 3 11 -7 17 -23 12 -55
112 -57 180 -1 28 -5 52 -9 52 -4 0 -11 21 -14 48 -3 26 -10 55 -16 64 -7 14
-5 18 8 19 16 1 16 2 1 6 -15 4 -16 21 -14 157 1 84 5 156 8 162 3 5 9 32 12
59 3 28 12 66 19 85 8 19 18 44 22 55 4 11 10 31 12 45 2 13 10 28 16 32 7 4
8 8 3 8 -5 0 -3 7 4 15 7 8 17 12 23 8 5 -3 7 -2 4 4 -8 13 31 89 43 86 14 -4
13 14 -1 22 -7 5 -3 15 10 29 12 12 18 25 15 29 -4 3 6 12 20 19 19 8 26 17
23 30 -4 12 3 24 20 35 37 25 81 71 88 93 4 11 9 20 13 20 4 0 34 25 66 55 52
48 62 54 74 41 16 -15 7 -40 -11 -33 -34 12 -93 -59 -89 -107 2 -14 -3 -17
-22 -14 -33 7 -74 -43 -51 -62 19 -16 19 -44 0 -60 -8 -7 -15 -20 -15 -28 0
-13 -2 -13 -13 3 -10 13 -16 15 -21 6 -4 -6 -12 -9 -17 -6 -5 4 -9 1 -9 -5 0
-6 -4 -8 -10 -5 -5 3 -10 -1 -10 -10 0 -9 -14 -34 -31 -55 -17 -21 -28 -43
-24 -49 3 -6 0 -11 -9 -11 -8 0 -17 -13 -21 -30 -4 -16 -11 -32 -16 -35 -16
-11 -9 -37 16 -61 21 -19 23 -27 15 -48 -5 -15 -14 -26 -20 -26 -6 0 -9 4 -6
8 2 4 -3 16 -12 27 -9 11 -16 18 -15 16 1 -2 -3 -13 -10 -25 -14 -24 -16 -86
-3 -86 5 0 3 -7 -4 -15 -15 -18 -4 -36 18 -33 15 3 17 -6 14 -65 -2 -51 0 -67
9 -62 8 6 9 3 1 -11 -8 -14 -6 -21 6 -31 15 -12 14 -13 -9 -7 -26 5 -27 5 -27
-48 0 -29 5 -56 10 -59 6 -4 11 -24 12 -45 1 -22 6 -46 11 -54 15 -23 17 -52
3 -44 -7 5 -8 3 -3 -6 15 -24 23 -79 12 -83 -7 -2 -7 -12 0 -34 9 -25 8 -34
-5 -47 -11 -10 -12 -16 -4 -16 7 0 12 -9 12 -20 0 -13 5 -18 15 -14 8 4 15 1
15 -5 0 -6 7 -11 16 -11 8 0 12 4 9 10 -3 6 -2 10 2 10 5 0 10 -21 11 -46 1
-31 8 -51 19 -59 10 -8 15 -17 11 -20 -4 -4 0 -14 8 -22 8 -9 13 -21 10 -28
-3 -8 2 -16 10 -19 8 -3 22 -21 31 -41 9 -19 20 -35 25 -35 4 0 5 -7 2 -15 -4
-10 4 -19 22 -26 17 -6 23 -13 16 -16 -16 -6 50 -73 72 -73 8 0 20 -9 26 -20
6 -11 17 -20 25 -20 8 0 19 -9 25 -20 6 -11 26 -30 46 -44 23 -15 31 -26 22
-29 -7 -2 1 -8 17 -12 38 -10 57 -24 48 -38 -3 -5 -1 -7 5 -3 6 3 14 1 17 -5
4 -5 14 -8 22 -5 8 4 32 -7 53 -24 26 -21 49 -30 76 -31 22 0 33 -3 26 -6 -17
-7 -5 -23 19 -23 11 0 33 -7 49 -15 16 -8 42 -16 57 -18 15 -2 38 -9 49 -15
12 -6 36 -13 53 -14 21 -1 30 -7 27 -15 -4 -8 3 -13 18 -13 13 0 38 -3 55 -6
26 -5 31 -3 31 12 0 17 1 17 15 -2 13 -18 14 -18 15 -1 0 17 1 17 16 3 11 -12
20 -13 33 -6 10 5 21 7 24 4 10 -10 67 -13 67 -3 0 6 8 9 18 7 9 -1 27 5 40
14 13 8 33 13 44 10 14 -3 19 -1 14 6 -4 7 -17 12 -29 12 -32 0 -5 22 30 24
15 1 34 5 41 10 7 4 19 3 27 -4 10 -8 16 -6 28 10 12 18 16 19 27 5 16 -19 44
-20 37 -1 -3 8 0 17 8 20 9 3 12 0 8 -10 -3 -7 -1 -14 5 -14 14 0 35 28 28 39
-11 17 26 22 38 5 16 -21 61 -15 61 8 0 17 28 44 50 47 6 1 9 9 7 17 -2 11 4
15 20 12 25 -3 48 27 48 63 0 16 3 18 18 10 13 -7 23 -6 31 2 9 9 14 8 22 -3
9 -12 10 -12 5 3 -7 23 17 49 38 41 19 -7 21 7 4 24 -15 15 7 43 31 40 12 -2
16 5 16 28 0 30 23 64 44 64 6 0 11 9 11 21 0 13 4 18 12 13 8 -5 9 -2 5 9 -4
11 -1 17 9 17 9 0 14 7 12 17 -2 10 5 26 14 35 10 10 18 28 18 41 0 18 2 19
10 7 7 -11 8 -6 4 16 -4 21 -1 36 11 47 9 10 14 17 10 17 -6 0 5 15 38 51 21
23 22 33 2 25 -21 -8 -19 9 9 52 30 48 41 82 26 82 -8 0 -10 9 -5 27 10 42 23
50 41 27 13 -15 15 -16 10 -2 -3 12 -1 15 10 11 15 -5 18 5 8 31 -3 8 -12 12
-20 9 -10 -4 -14 3 -14 26 0 20 5 31 14 31 7 0 19 7 26 15 10 12 10 15 -4 15
-9 0 -16 7 -16 15 0 8 5 15 11 15 8 0 7 5 -2 16 -7 9 -12 35 -10 60 1 31 -2
44 -11 44 -14 0 -41 29 -45 48 -2 7 6 12 17 12 11 0 20 5 20 10 0 6 -8 10 -17
10 -13 0 -14 3 -5 12 17 17 15 33 -2 19 -11 -9 -15 -7 -19 10 -4 16 -2 19 11
14 14 -5 14 -4 0 12 -19 21 -42 109 -34 130 3 8 2 12 -3 8 -5 -3 -12 9 -16 27
-4 18 -15 48 -26 66 -10 17 -15 32 -11 32 4 0 13 9 20 20 11 19 11 19 -7 8
-26 -16 -38 -4 -17 17 18 18 13 35 -10 35 -11 0 -13 6 -9 20 4 13 1 22 -9 26
-9 3 -16 13 -16 21 0 18 -21 38 -40 38 -8 0 -14 8 -14 17 1 10 -2 15 -7 13
-12 -8 -30 31 -23 49 4 11 1 16 -11 16 -9 0 -13 -4 -10 -10 3 -5 1 -10 -4 -10
-6 0 -11 6 -11 14 0 8 -13 28 -30 44 -16 17 -30 33 -30 36 0 13 -36 46 -50 46
-9 0 -29 13 -46 28 -17 16 -45 34 -62 41 -17 7 -38 21 -48 32 -9 10 -22 19
-28 19 -7 0 -28 16 -48 36 -28 26 -43 34 -58 29 -14 -5 -20 -2 -20 10 0 9 -5
13 -10 10 -20 -12 -225 26 -240 44 -9 12 -60 31 -60 22 0 -14 -71 -6 -80 9 -7
12 -11 12 -26 -1 -9 -8 -40 -15 -68 -16 -79 -3 -170 -15 -182 -24 -6 -5 -26
-9 -45 -10 -55 -2 -90 -10 -84 -20 3 -4 -11 -15 -31 -24 -45 -19 -50 -19 -34
0 8 9 9 15 2 15 -6 0 -14 -5 -17 -10 -4 -7 -12 -7 -25 0 -13 7 -21 7 -25 0 -3
-5 -10 -10 -16 -10 -18 0 16 40 47 55 37 17 58 19 49 5 -3 -5 1 -10 10 -10 11
0 15 5 12 14 -3 8 2 16 13 19 11 3 21 0 23 -7 3 -7 11 -5 25 7 12 11 26 16 33
11 7 -4 17 0 24 9 6 9 23 19 38 22 21 6 27 4 27 -9 0 -21 12 -20 36 2 16 16
22 17 32 5 7 -7 18 -13 25 -13 8 0 7 4 -3 10 -12 7 -10 11 10 19 33 13 57 13
65 1z m-515 -164 c0 -2 3 -13 6 -23 6 -15 4 -16 -7 -5 -17 16 -32 15 -26 -2 4
-11 -5 -13 -44 -12 -27 0 -48 5 -46 10 6 17 117 47 117 32z m678 -65 c1 -4 23
-5 47 -1 24 4 48 3 54 -3 5 -5 23 -10 41 -11 18 -1 36 -10 42 -19 5 -10 13
-15 18 -12 5 3 15 -4 23 -15 7 -11 17 -17 21 -13 4 4 11 1 17 -7 7 -12 11 -12
17 -3 6 10 19 8 57 -5 28 -10 50 -23 50 -29 0 -14 96 -80 129 -89 14 -3 26
-12 26 -20 0 -8 5 -14 11 -14 5 0 8 -4 5 -9 -4 -5 3 -7 14 -4 12 3 20 0 20 -7
0 -7 15 -28 34 -46 18 -18 44 -54 57 -81 13 -26 31 -57 41 -67 9 -10 15 -23
12 -27 -3 -5 2 -6 10 -3 10 4 16 -4 21 -25 4 -17 12 -37 18 -44 36 -39 46 -84
25 -105 -9 -9 -9 -12 0 -12 7 0 12 -13 12 -30 0 -18 5 -30 13 -30 9 0 14 -12
15 -32 0 -17 7 -35 14 -39 7 -4 9 -11 5 -15 -4 -4 1 -13 11 -20 9 -8 12 -14 5
-14 -6 0 -15 5 -18 10 -9 15 -25 12 -25 -4 0 -7 9 -16 21 -19 19 -5 21 -12 18
-78 -3 -50 0 -74 8 -76 10 -4 10 -9 0 -25 -10 -16 -9 -22 1 -25 10 -4 8 -9 -5
-20 -10 -8 -12 -11 -4 -7 11 5 13 3 8 -10 -4 -10 -7 -24 -7 -32 0 -9 -4 -12
-10 -9 -6 4 -7 -2 -1 -17 10 -27 -2 -73 -24 -98 -12 -14 -13 -20 -4 -26 9 -5
8 -10 -3 -18 -15 -11 -18 -17 -18 -36 0 -15 -42 -51 -72 -62 -18 -6 -28 -17
-28 -30 0 -10 -3 -17 -7 -15 -5 3 -14 -2 -22 -10 -12 -13 -11 -14 9 -8 19 6
22 4 17 -10 -4 -9 -7 -28 -7 -41 0 -15 -4 -23 -10 -19 -6 4 -8 10 -5 15 3 4
-2 11 -11 14 -12 5 -14 1 -8 -16 5 -17 3 -20 -10 -15 -10 4 -15 3 -12 -1 3 -5
-4 -16 -15 -26 -13 -11 -18 -24 -14 -34 3 -9 3 -13 -1 -10 -4 4 -16 3 -26 -3
-15 -8 -17 -14 -9 -22 17 -17 13 -33 -14 -47 -13 -7 -22 -17 -18 -23 4 -6 -4
-8 -21 -5 -27 5 -44 -6 -26 -17 13 -8 -13 -35 -33 -35 -7 0 -19 -12 -25 -26
-7 -14 -16 -22 -22 -19 -5 3 -31 -4 -57 -16 -72 -31 -78 -35 -78 -49 0 -7 -8
-15 -17 -17 -10 -1 -26 -5 -35 -6 -9 -2 -19 -9 -21 -15 -2 -6 -10 -8 -18 -5
-8 3 -20 0 -27 -5 -7 -6 -54 -12 -105 -13 -51 -1 -92 -5 -92 -9 0 -9 -101 -7
-117 3 -6 4 -18 4 -27 1 -12 -5 -15 -2 -10 10 5 13 -1 16 -32 17 -22 1 -52 3
-69 5 -16 2 -51 5 -78 7 -26 3 -53 9 -60 15 -17 14 -84 31 -92 24 -3 -4 -9 -2
-13 4 -4 6 -29 23 -57 38 -54 29 -120 82 -120 97 0 5 -11 15 -25 22 -14 7 -25
19 -25 27 0 8 -7 15 -15 15 -18 0 -52 33 -68 69 -6 15 -16 25 -21 22 -4 -3
-17 10 -27 29 -10 19 -25 35 -32 35 -8 0 -12 6 -8 15 3 8 1 15 -3 15 -5 0 -14
14 -20 30 -5 17 -14 30 -19 30 -5 0 -9 6 -10 13 0 6 -7 30 -16 52 -8 22 -15
54 -16 70 0 17 -5 36 -10 41 -6 6 -12 28 -13 49 -2 28 -10 43 -32 61 -18 14
-33 39 -40 67 -12 49 -10 67 10 67 8 0 16 17 20 41 4 22 13 53 21 67 8 15 11
35 8 44 -3 10 -1 25 4 35 5 10 13 48 17 86 6 57 4 67 -9 67 -18 0 -21 16 -5
25 6 4 8 14 5 22 -11 29 71 153 102 153 15 0 34 27 24 34 -20 12 -3 47 43 93
27 26 46 40 42 31 -9 -26 12 -22 42 6 14 14 43 39 64 57 21 18 45 46 54 62 26
51 18 46 203 114 123 45 149 51 245 59 44 4 82 8 85 11 8 7 115 -8 118 -16z
m-783 -1 c-3 -5 -12 -10 -18 -10 -7 0 -6 4 3 10 19 12 23 12 15 0z m-423 -702
c-7 -7 -12 -8 -12 -2 0 14 12 26 19 19 2 -3 -1 -11 -7 -17z m38 -518 c0 -5 -2
-10 -4 -10 -3 0 -8 5 -11 10 -3 6 -1 10 4 10 6 0 11 -4 11 -10z m1980 -170 c0
-5 -4 -10 -10 -10 -5 0 -10 5 -10 10 0 6 5 10 10 10 6 0 10 -4 10 -10z m-123
-426 c-3 -3 -12 -4 -19 -1 -8 3 -5 6 6 6 11 1 17 -2 13 -5z m-207 -164 c0 -5
-2 -10 -4 -10 -3 0 -8 5 -11 10 -3 6 -1 10 4 10 6 0 11 -4 11 -10z"/>
<path d="M1330 2490 c0 -5 5 -10 10 -10 6 0 10 5 10 10 0 6 -4 10 -10 10 -5 0
-10 -4 -10 -10z"/>
<path d="M2095 2199 c-11 -17 1 -21 15 -4 8 9 8 15 2 15 -6 0 -14 -5 -17 -11z"/>
<path d="M2175 2080 c-3 -5 1 -10 9 -10 9 0 16 5 16 10 0 6 -4 10 -9 10 -6 0
-13 -4 -16 -10z"/>
<path d="M2295 1890 c3 -5 11 -10 16 -10 6 0 7 5 4 10 -3 6 -11 10 -16 10 -6
0 -7 -4 -4 -10z"/>
<path d="M2371 1623 c-8 -18 -9 -29 -2 -36 10 -10 11 -8 26 38 8 26 -12 25
-24 -2z"/>
<path d="M2427 1575 c4 -24 2 -35 -6 -35 -7 0 -10 -4 -6 -10 3 -5 12 -7 20 -4
8 4 12 10 9 16 -3 5 3 12 15 15 12 3 21 13 21 25 0 10 -4 16 -10 13 -5 -3 -18
-1 -29 5 -18 9 -19 7 -14 -25z"/>
<path d="M2390 1554 c0 -8 5 -12 10 -9 6 4 8 11 5 16 -9 14 -15 11 -15 -7z"/>
<path d="M114 1464 c3 -9 6 -18 6 -20 0 -3 4 -3 10 1 11 7 2 35 -12 35 -6 0
-7 -7 -4 -16z"/>
<path d="M2397 1413 c3 -7 9 -10 14 -7 14 8 11 21 -5 21 -8 0 -12 -6 -9 -14z"/>
<path d="M102 1389 c-12 -18 -11 -24 2 -37 14 -14 15 -12 14 21 -1 20 -2 37
-2 37 -1 0 -7 -10 -14 -21z"/>
<path d="M2486 1324 c-10 -27 -7 -44 10 -44 8 0 12 5 8 11 -3 6 -1 15 6 19 7
4 9 13 6 19 -10 16 -23 14 -30 -5z"/>
<path d="M2455 1181 c-3 -5 -1 -12 5 -16 5 -3 10 1 10 9 0 18 -6 21 -15 7z"/>
<path d="M120 1025 c0 -8 4 -15 10 -15 5 0 7 7 4 15 -4 8 -8 15 -10 15 -2 0
-4 -7 -4 -15z"/>
<path d="M165 970 c4 -6 11 -8 16 -5 14 9 11 15 -7 15 -8 0 -12 -5 -9 -10z"/>
<path d="M2370 918 c0 -19 2 -20 10 -8 13 19 13 30 0 30 -5 0 -10 -10 -10 -22z"/>
<path d="M2009 348 c-11 -21 -3 -23 36 -8 14 5 24 14 20 19 -9 16 -46 8 -56
-11z"/>
<path d="M613 315 c-9 -25 4 -29 17 -6 7 15 7 21 0 21 -6 0 -13 -7 -17 -15z"/>
<path d="M1670 150 c0 -5 5 -10 10 -10 6 0 10 5 10 10 0 6 -4 10 -10 10 -5 0
-10 -4 -10 -10z"/>
<path d="M1255 2270 c3 -5 8 -10 11 -10 2 0 4 5 4 10 0 6 -5 10 -11 10 -5 0
-7 -4 -4 -10z"/>
<path d="M1590 2076 c0 -9 7 -16 16 -16 17 0 14 22 -4 28 -7 2 -12 -3 -12 -12z"/>
<path d="M1177 1841 c-103 -34 -167 -92 -202 -183 -35 -93 3 -197 99 -270 50
-37 60 -41 222 -83 159 -40 249 -96 281 -174 15 -36 16 -120 1 -161 -20 -54
-108 -120 -162 -120 -14 0 -28 -4 -31 -10 -18 -30 -192 6 -258 52 -44 31 -93
81 -115 117 l-18 30 -32 -22 c-17 -12 -39 -37 -49 -55 l-18 -34 65 -59 c109
-100 208 -146 345 -164 89 -11 248 50 320 121 35 35 81 116 93 165 21 84 -9
202 -70 276 -38 45 -119 100 -140 95 -5 -1 -8 2 -8 7 0 12 -110 45 -219 67
-134 26 -184 68 -185 154 -2 110 121 177 278 151 83 -14 121 -31 176 -78 32
-28 43 -32 59 -24 26 15 73 71 68 84 -7 21 -113 86 -172 106 -36 11 -103 22
-165 25 -88 5 -115 3 -163 -13z"/>
<path d="M440 1766 c0 -15 24 -28 34 -19 13 14 5 33 -14 33 -11 0 -20 -6 -20
-14z"/>
<path d="M2165 1570 c3 -5 11 -10 16 -10 6 0 7 5 4 10 -3 6 -11 10 -16 10 -6
0 -7 -4 -4 -10z"/>
<path d="M2130 1428 c0 -9 -7 -18 -15 -22 -17 -6 -21 -36 -5 -36 6 0 14 8 17
18 4 9 11 20 17 24 8 5 7 11 -2 20 -9 9 -12 9 -12 -4z"/>
<path d="M2110 910 c0 -5 5 -10 10 -10 6 0 10 5 10 10 0 6 -4 10 -10 10 -5 0
-10 -4 -10 -10z"/>
<path d="M1256 382 c-3 -6 -1 -14 5 -17 15 -10 25 3 12 16 -7 7 -13 7 -17 1z"/>
</g>
</svg>
